M48
; DRILL file {KiCad 5.1.5-52549c5~86~ubuntu16.04.1} date sam. 16 mai 2020 21:50:11 CEST
; FORMAT={-:-/ absolute / inch / decimal}
; #@! TF.CreationDate,2020-05-16T21:50:11+02:00
; #@! TF.GenerationSoftware,Kicad,Pcbnew,5.1.5-52549c5~86~ubuntu16.04.1
; #@! TF.FileFunction,Plated,1,2,PTH
FMAT,2
INCH
T1C0.0118
T2C0.0157
T3C0.0315
T4C0.0374
T5C0.0394
T6C0.0433
%
G90
G05
T1
X3.8163Y-0.8954
X3.8163Y-0.9466
X3.8163Y-0.9978
X3.8163Y-1.049
X3.8163Y-1.1001
X3.8163Y-1.1513
X3.8675Y-0.8954
X3.8675Y-0.9466
X3.8675Y-0.9978
X3.8675Y-1.049
X3.8675Y-1.1001
X3.8675Y-1.1513
X3.9187Y-0.8954
X3.9187Y-0.9466
X3.9187Y-0.9978
X3.9187Y-1.049
X3.9187Y-1.1001
X3.9187Y-1.1513
X0.9963Y-0.8085
X0.9963Y-0.8597
X0.9963Y-0.9109
X0.9963Y-0.9621
X0.9963Y-1.0133
X0.9963Y-1.0645
X1.0475Y-0.8085
X1.0475Y-0.8597
X1.0475Y-0.9109
X1.0475Y-0.9621
X1.0475Y-1.0133
X1.0475Y-1.0645
X1.0987Y-0.8085
X1.0987Y-0.8597
X1.0987Y-0.9109
X1.0987Y-0.9621
X1.0987Y-1.0133
X1.0987Y-1.0645
X1.0013Y-2.811
X1.0013Y-2.8622
X1.0013Y-2.9134
X1.0013Y-2.9646
X1.0013Y-3.0158
X1.0013Y-3.067
X1.0525Y-2.811
X1.0525Y-2.8622
X1.0525Y-2.9134
X1.0525Y-2.9646
X1.0525Y-3.0158
X1.0525Y-3.067
X1.1037Y-2.811
X1.1037Y-2.8622
X1.1037Y-2.9134
X1.1037Y-2.9646
X1.1037Y-3.0158
X1.1037Y-3.067
X3.8306Y-2.7788
X3.8306Y-2.83
X3.8306Y-2.8811
X3.8306Y-2.9323
X3.8306Y-2.9835
X3.8306Y-3.0347
X3.8817Y-2.7788
X3.8817Y-2.83
X3.8817Y-2.8811
X3.8817Y-2.9323
X3.8817Y-2.9835
X3.8817Y-3.0347
X3.9329Y-2.7788
X3.9329Y-2.83
X3.9329Y-2.8811
X3.9329Y-2.9323
X3.9329Y-2.9835
X3.9329Y-3.0347
T2
X1.334Y-0.728
X1.474Y-2.768
X1.538Y-0.914
X1.644Y-2.8504
X1.6455Y-2.534
X1.672Y-1.23
X1.674Y-2.8218
X1.688Y-0.688
X1.71Y-2.616
X1.734Y-2.2
X1.736Y-2.386
X1.7732Y-2.1288
X1.7868Y-2.2232
X1.812Y-2.1218
X1.82Y-0.944
X1.82Y-1.094
X1.89Y-1.526
X1.93Y-2.282
X1.954Y-1.524
X1.954Y-1.406
X1.9565Y-1.2815
X1.96Y-1.936
X1.978Y-1.678
X2.0385Y-1.7705
X2.0385Y-1.954
X2.0385Y-2.189
X2.041Y-1.619
X2.1Y-1.604
X2.105Y-1.264
X2.1175Y-1.9105
X2.1175Y-2.0305
X2.226Y-1.08
X2.262Y-2.132
X2.262Y-2.2225
X2.262Y-2.34
X2.412Y-2.298
X2.526Y-3.262
X2.5363Y-1.259
X2.612Y-3.19
X2.72Y-2.634
X3.174Y-3.042
X3.212Y-3.134
X3.29Y-1.039
X3.292Y-2.91
X3.422Y-1.614
X3.4465Y-1.194
X3.4465Y-1.274
X3.492Y-3.006
X3.495Y-3.064
X3.605Y-1.279
X3.615Y-2.8871
X3.675Y-2.899
X3.7Y-1.1159
T3
X2.975Y-1.739
X2.975Y-1.8374
X2.975Y-1.189
X2.975Y-1.2874
X1.5875Y-1.349
X1.5875Y-1.449
X1.5875Y-1.549
X1.5875Y-1.649
X1.5875Y-1.749
X1.5875Y-1.849
X1.5875Y-1.949
X1.5875Y-2.049
X1.5875Y-2.149
X1.5875Y-2.249
X1.5875Y-2.349
X1.5875Y-2.449
X1.5875Y-2.549
X1.5875Y-2.649
X1.5875Y-2.749
X2.1875Y-1.349
X2.1875Y-1.449
X2.1875Y-1.549
X2.1875Y-1.649
X2.1875Y-1.749
X2.1875Y-1.849
X2.1875Y-1.949
X2.1875Y-2.049
X2.1875Y-2.149
X2.1875Y-2.249
X2.1875Y-2.349
X2.1875Y-2.449
X2.1875Y-2.549
X2.1875Y-2.649
X2.1875Y-2.749
X2.975Y-1.464
X2.975Y-1.5624
X2.975Y-2.289
X2.975Y-2.3874
X2.975Y-2.014
X2.975Y-2.1124
X2.975Y-2.564
X2.975Y-2.6624
T4
X4.1775Y-0.899
X4.1775Y-0.9974
X4.1775Y-1.0959
X4.18Y-1.9615
X4.18Y-2.0599
X4.18Y-2.1584
X4.18Y-2.2568
X3.88Y-1.8615
X3.88Y-1.9599
X3.88Y-2.0584
X3.88Y-2.1568
X3.88Y-2.2552
X0.7375Y-2.8656
X0.7375Y-2.964
X0.7375Y-3.0624
X4.1925Y-2.7815
X4.1925Y-2.8799
X4.1925Y-2.9784
X0.7375Y-0.8646
X0.7375Y-0.9631
X0.7375Y-1.0615
X3.28Y-1.6615
X3.28Y-1.7599
X3.28Y-1.8584
X3.28Y-1.9568
X3.28Y-2.0552
X3.28Y-2.1536
X3.28Y-2.2521
X3.58Y-1.7615
X3.58Y-1.8599
X3.58Y-1.9584
X3.58Y-2.0568
X3.58Y-2.1552
X3.58Y-2.2536
T5
X0.6875Y-2.324
X0.7875Y-2.324
X0.8875Y-2.324
X1.1375Y-1.424
X1.1375Y-1.524
X2.3981Y-1.129
X2.595Y-1.129
X0.6875Y-1.349
X0.7875Y-1.349
X0.8875Y-1.349
X0.6875Y-1.8365
X0.7875Y-1.8365
X0.8875Y-1.8365
X1.1375Y-2.399
X1.1375Y-2.499
X0.6875Y-2.549
X0.7875Y-2.549
X0.8875Y-2.549
X0.68Y-2.074
X0.78Y-2.074
X0.88Y-2.074
X1.1375Y-1.899
X1.1375Y-1.999
X0.6875Y-1.574
X0.7875Y-1.574
X0.8875Y-1.574
T6
X2.6877Y-1.7663
X2.6877Y-1.8565
X2.6877Y-1.9467
X2.6827Y-1.4663
X2.6827Y-1.5565
X2.6827Y-1.6467
T0
M30
