G04 #@! TF.GenerationSoftware,KiCad,Pcbnew,5.1.5-52549c5~86~ubuntu16.04.1*
G04 #@! TF.CreationDate,2020-05-16T21:50:14+02:00*
G04 #@! TF.ProjectId,rc board,72632062-6f61-4726-942e-6b696361645f,rev?*
G04 #@! TF.SameCoordinates,Original*
G04 #@! TF.FileFunction,Soldermask,Bot*
G04 #@! TF.FilePolarity,Negative*
%FSLAX46Y46*%
G04 Gerber Fmt 4.6, Leading zero omitted, Abs format (unit mm)*
G04 Created by KiCad (PCBNEW 5.1.5-52549c5~86~ubuntu16.04.1) date 2020-05-16 21:50:14*
%MOMM*%
%LPD*%
G04 APERTURE LIST*
%ADD10C,0.100000*%
G04 APERTURE END LIST*
D10*
G36*
X19616100Y-76888589D02*
G01*
X19649152Y-76898615D01*
X19679603Y-76914892D01*
X19706299Y-76936801D01*
X19728208Y-76963497D01*
X19744485Y-76993948D01*
X19754511Y-77027000D01*
X19758500Y-77067503D01*
X19758500Y-78503697D01*
X19754511Y-78544200D01*
X19744485Y-78577252D01*
X19728208Y-78607703D01*
X19706299Y-78634399D01*
X19679603Y-78656308D01*
X19649152Y-78672585D01*
X19616100Y-78682611D01*
X19575597Y-78686600D01*
X17889403Y-78686600D01*
X17848900Y-78682611D01*
X17815848Y-78672585D01*
X17785397Y-78656308D01*
X17758701Y-78634399D01*
X17736792Y-78607703D01*
X17720515Y-78577252D01*
X17710489Y-78544200D01*
X17706500Y-78503697D01*
X17706500Y-77067503D01*
X17710489Y-77027000D01*
X17720515Y-76993948D01*
X17736792Y-76963497D01*
X17758701Y-76936801D01*
X17785397Y-76914892D01*
X17815848Y-76898615D01*
X17848900Y-76888589D01*
X17889403Y-76884600D01*
X19575597Y-76884600D01*
X19616100Y-76888589D01*
G37*
G36*
X106724943Y-74755619D02*
G01*
X106791127Y-74762137D01*
X106960966Y-74813657D01*
X107117491Y-74897322D01*
X107153229Y-74926652D01*
X107254686Y-75009914D01*
X107335980Y-75108973D01*
X107367278Y-75147109D01*
X107450943Y-75303634D01*
X107502463Y-75473473D01*
X107519859Y-75650100D01*
X107502463Y-75826727D01*
X107450943Y-75996566D01*
X107367278Y-76153091D01*
X107350477Y-76173563D01*
X107254686Y-76290286D01*
X107153229Y-76373548D01*
X107117491Y-76402878D01*
X106960966Y-76486543D01*
X106791127Y-76538063D01*
X106724942Y-76544582D01*
X106658760Y-76551100D01*
X106320240Y-76551100D01*
X106254058Y-76544582D01*
X106187873Y-76538063D01*
X106018034Y-76486543D01*
X105861509Y-76402878D01*
X105825771Y-76373548D01*
X105724314Y-76290286D01*
X105628523Y-76173563D01*
X105611722Y-76153091D01*
X105528057Y-75996566D01*
X105476537Y-75826727D01*
X105459141Y-75650100D01*
X105476537Y-75473473D01*
X105528057Y-75303634D01*
X105611722Y-75147109D01*
X105643020Y-75108973D01*
X105724314Y-75009914D01*
X105825771Y-74926652D01*
X105861509Y-74897322D01*
X106018034Y-74813657D01*
X106187873Y-74762137D01*
X106254057Y-74755619D01*
X106320240Y-74749100D01*
X106658760Y-74749100D01*
X106724943Y-74755619D01*
G37*
G36*
X18967942Y-74391118D02*
G01*
X19034127Y-74397637D01*
X19203966Y-74449157D01*
X19360491Y-74532822D01*
X19396229Y-74562152D01*
X19497686Y-74645414D01*
X19580948Y-74746871D01*
X19610278Y-74782609D01*
X19693943Y-74939134D01*
X19745463Y-75108973D01*
X19762859Y-75285600D01*
X19745463Y-75462227D01*
X19693943Y-75632066D01*
X19610278Y-75788591D01*
X19580948Y-75824329D01*
X19497686Y-75925786D01*
X19396229Y-76009048D01*
X19360491Y-76038378D01*
X19203966Y-76122043D01*
X19034127Y-76173563D01*
X18967943Y-76180081D01*
X18901760Y-76186600D01*
X18563240Y-76186600D01*
X18497057Y-76180081D01*
X18430873Y-76173563D01*
X18261034Y-76122043D01*
X18104509Y-76038378D01*
X18068771Y-76009048D01*
X17967314Y-75925786D01*
X17884052Y-75824329D01*
X17854722Y-75788591D01*
X17771057Y-75632066D01*
X17719537Y-75462227D01*
X17702141Y-75285600D01*
X17719537Y-75108973D01*
X17771057Y-74939134D01*
X17854722Y-74782609D01*
X17884052Y-74746871D01*
X17967314Y-74645414D01*
X18068771Y-74562152D01*
X18104509Y-74532822D01*
X18261034Y-74449157D01*
X18430873Y-74397637D01*
X18497058Y-74391118D01*
X18563240Y-74384600D01*
X18901760Y-74384600D01*
X18967942Y-74391118D01*
G37*
G36*
X106724943Y-72255619D02*
G01*
X106791127Y-72262137D01*
X106960966Y-72313657D01*
X107117491Y-72397322D01*
X107153229Y-72426652D01*
X107254686Y-72509914D01*
X107335980Y-72608973D01*
X107367278Y-72647109D01*
X107450943Y-72803634D01*
X107502463Y-72973473D01*
X107519859Y-73150100D01*
X107502463Y-73326727D01*
X107450943Y-73496566D01*
X107367278Y-73653091D01*
X107350477Y-73673563D01*
X107254686Y-73790286D01*
X107153229Y-73873548D01*
X107117491Y-73902878D01*
X106960966Y-73986543D01*
X106791127Y-74038063D01*
X106724943Y-74044581D01*
X106658760Y-74051100D01*
X106320240Y-74051100D01*
X106254057Y-74044581D01*
X106187873Y-74038063D01*
X106018034Y-73986543D01*
X105861509Y-73902878D01*
X105825771Y-73873548D01*
X105724314Y-73790286D01*
X105628523Y-73673563D01*
X105611722Y-73653091D01*
X105528057Y-73496566D01*
X105476537Y-73326727D01*
X105459141Y-73150100D01*
X105476537Y-72973473D01*
X105528057Y-72803634D01*
X105611722Y-72647109D01*
X105643020Y-72608973D01*
X105724314Y-72509914D01*
X105825771Y-72426652D01*
X105861509Y-72397322D01*
X106018034Y-72313657D01*
X106187873Y-72262137D01*
X106254057Y-72255619D01*
X106320240Y-72249100D01*
X106658760Y-72249100D01*
X106724943Y-72255619D01*
G37*
G36*
X18967942Y-71891118D02*
G01*
X19034127Y-71897637D01*
X19203966Y-71949157D01*
X19360491Y-72032822D01*
X19396229Y-72062152D01*
X19497686Y-72145414D01*
X19580948Y-72246871D01*
X19610278Y-72282609D01*
X19693943Y-72439134D01*
X19745463Y-72608973D01*
X19762859Y-72785600D01*
X19745463Y-72962227D01*
X19693943Y-73132066D01*
X19610278Y-73288591D01*
X19580948Y-73324329D01*
X19497686Y-73425786D01*
X19396229Y-73509048D01*
X19360491Y-73538378D01*
X19203966Y-73622043D01*
X19034127Y-73673563D01*
X18967942Y-73680082D01*
X18901760Y-73686600D01*
X18563240Y-73686600D01*
X18497058Y-73680082D01*
X18430873Y-73673563D01*
X18261034Y-73622043D01*
X18104509Y-73538378D01*
X18068771Y-73509048D01*
X17967314Y-73425786D01*
X17884052Y-73324329D01*
X17854722Y-73288591D01*
X17771057Y-73132066D01*
X17719537Y-72962227D01*
X17702141Y-72785600D01*
X17719537Y-72608973D01*
X17771057Y-72439134D01*
X17854722Y-72282609D01*
X17884052Y-72246871D01*
X17967314Y-72145414D01*
X18068771Y-72062152D01*
X18104509Y-72032822D01*
X18261034Y-71949157D01*
X18430873Y-71897637D01*
X18497058Y-71891118D01*
X18563240Y-71884600D01*
X18901760Y-71884600D01*
X18967942Y-71891118D01*
G37*
G36*
X107373100Y-69753089D02*
G01*
X107406152Y-69763115D01*
X107436603Y-69779392D01*
X107463299Y-69801301D01*
X107485208Y-69827997D01*
X107501485Y-69858448D01*
X107511511Y-69891500D01*
X107515500Y-69932003D01*
X107515500Y-71368197D01*
X107511511Y-71408700D01*
X107501485Y-71441752D01*
X107485208Y-71472203D01*
X107463299Y-71498899D01*
X107436603Y-71520808D01*
X107406152Y-71537085D01*
X107373100Y-71547111D01*
X107332597Y-71551100D01*
X105646403Y-71551100D01*
X105605900Y-71547111D01*
X105572848Y-71537085D01*
X105542397Y-71520808D01*
X105515701Y-71498899D01*
X105493792Y-71472203D01*
X105477515Y-71441752D01*
X105467489Y-71408700D01*
X105463500Y-71368197D01*
X105463500Y-69932003D01*
X105467489Y-69891500D01*
X105477515Y-69858448D01*
X105493792Y-69827997D01*
X105515701Y-69801301D01*
X105542397Y-69779392D01*
X105572848Y-69763115D01*
X105605900Y-69753089D01*
X105646403Y-69749100D01*
X107332597Y-69749100D01*
X107373100Y-69753089D01*
G37*
G36*
X40570728Y-69006303D02*
G01*
X40725600Y-69070453D01*
X40864981Y-69163585D01*
X40983515Y-69282119D01*
X41076647Y-69421500D01*
X41140797Y-69576372D01*
X41173500Y-69740784D01*
X41173500Y-69908416D01*
X41140797Y-70072828D01*
X41076647Y-70227700D01*
X40983515Y-70367081D01*
X40864981Y-70485615D01*
X40725600Y-70578747D01*
X40570728Y-70642897D01*
X40406316Y-70675600D01*
X40238684Y-70675600D01*
X40074272Y-70642897D01*
X39919400Y-70578747D01*
X39780019Y-70485615D01*
X39661485Y-70367081D01*
X39568353Y-70227700D01*
X39504203Y-70072828D01*
X39471500Y-69908416D01*
X39471500Y-69740784D01*
X39504203Y-69576372D01*
X39568353Y-69421500D01*
X39661485Y-69282119D01*
X39780019Y-69163585D01*
X39919400Y-69070453D01*
X40074272Y-69006303D01*
X40238684Y-68973600D01*
X40406316Y-68973600D01*
X40570728Y-69006303D01*
G37*
G36*
X55810728Y-69006303D02*
G01*
X55965600Y-69070453D01*
X56104981Y-69163585D01*
X56223515Y-69282119D01*
X56316647Y-69421500D01*
X56380797Y-69576372D01*
X56413500Y-69740784D01*
X56413500Y-69908416D01*
X56380797Y-70072828D01*
X56316647Y-70227700D01*
X56223515Y-70367081D01*
X56104981Y-70485615D01*
X55965600Y-70578747D01*
X55810728Y-70642897D01*
X55646316Y-70675600D01*
X55478684Y-70675600D01*
X55314272Y-70642897D01*
X55159400Y-70578747D01*
X55020019Y-70485615D01*
X54901485Y-70367081D01*
X54808353Y-70227700D01*
X54744203Y-70072828D01*
X54711500Y-69908416D01*
X54711500Y-69740784D01*
X54744203Y-69576372D01*
X54808353Y-69421500D01*
X54901485Y-69282119D01*
X55020019Y-69163585D01*
X55159400Y-69070453D01*
X55314272Y-69006303D01*
X55478684Y-68973600D01*
X55646316Y-68973600D01*
X55810728Y-69006303D01*
G37*
G36*
X75813228Y-66807303D02*
G01*
X75968100Y-66871453D01*
X76107481Y-66964585D01*
X76226015Y-67083119D01*
X76319147Y-67222500D01*
X76383297Y-67377372D01*
X76416000Y-67541784D01*
X76416000Y-67709416D01*
X76383297Y-67873828D01*
X76319147Y-68028700D01*
X76226015Y-68168081D01*
X76107481Y-68286615D01*
X75968100Y-68379747D01*
X75813228Y-68443897D01*
X75648816Y-68476600D01*
X75481184Y-68476600D01*
X75316772Y-68443897D01*
X75161900Y-68379747D01*
X75022519Y-68286615D01*
X74903985Y-68168081D01*
X74810853Y-68028700D01*
X74746703Y-67873828D01*
X74714000Y-67709416D01*
X74714000Y-67541784D01*
X74746703Y-67377372D01*
X74810853Y-67222500D01*
X74903985Y-67083119D01*
X75022519Y-66964585D01*
X75161900Y-66871453D01*
X75316772Y-66807303D01*
X75481184Y-66774600D01*
X75648816Y-66774600D01*
X75813228Y-66807303D01*
G37*
G36*
X55810728Y-66466303D02*
G01*
X55965600Y-66530453D01*
X56104981Y-66623585D01*
X56223515Y-66742119D01*
X56316647Y-66881500D01*
X56380797Y-67036372D01*
X56413500Y-67200784D01*
X56413500Y-67368416D01*
X56380797Y-67532828D01*
X56316647Y-67687700D01*
X56223515Y-67827081D01*
X56104981Y-67945615D01*
X55965600Y-68038747D01*
X55810728Y-68102897D01*
X55646316Y-68135600D01*
X55478684Y-68135600D01*
X55314272Y-68102897D01*
X55159400Y-68038747D01*
X55020019Y-67945615D01*
X54901485Y-67827081D01*
X54808353Y-67687700D01*
X54744203Y-67532828D01*
X54711500Y-67368416D01*
X54711500Y-67200784D01*
X54744203Y-67036372D01*
X54808353Y-66881500D01*
X54901485Y-66742119D01*
X55020019Y-66623585D01*
X55159400Y-66530453D01*
X55314272Y-66466303D01*
X55478684Y-66433600D01*
X55646316Y-66433600D01*
X55810728Y-66466303D01*
G37*
G36*
X40570728Y-66466303D02*
G01*
X40725600Y-66530453D01*
X40864981Y-66623585D01*
X40983515Y-66742119D01*
X41076647Y-66881500D01*
X41140797Y-67036372D01*
X41173500Y-67200784D01*
X41173500Y-67368416D01*
X41140797Y-67532828D01*
X41076647Y-67687700D01*
X40983515Y-67827081D01*
X40864981Y-67945615D01*
X40725600Y-68038747D01*
X40570728Y-68102897D01*
X40406316Y-68135600D01*
X40238684Y-68135600D01*
X40074272Y-68102897D01*
X39919400Y-68038747D01*
X39780019Y-67945615D01*
X39661485Y-67827081D01*
X39568353Y-67687700D01*
X39504203Y-67532828D01*
X39471500Y-67368416D01*
X39471500Y-67200784D01*
X39504203Y-67036372D01*
X39568353Y-66881500D01*
X39661485Y-66742119D01*
X39780019Y-66623585D01*
X39919400Y-66530453D01*
X40074272Y-66466303D01*
X40238684Y-66433600D01*
X40406316Y-66433600D01*
X40570728Y-66466303D01*
G37*
G36*
X76416000Y-65976600D02*
G01*
X74714000Y-65976600D01*
X74714000Y-64274600D01*
X76416000Y-64274600D01*
X76416000Y-65976600D01*
G37*
G36*
X20116012Y-63848527D02*
G01*
X20265312Y-63878224D01*
X20429284Y-63946144D01*
X20576854Y-64044747D01*
X20702353Y-64170246D01*
X20800956Y-64317816D01*
X20868876Y-64481788D01*
X20903500Y-64655859D01*
X20903500Y-64833341D01*
X20868876Y-65007412D01*
X20800956Y-65171384D01*
X20702353Y-65318954D01*
X20576854Y-65444453D01*
X20429284Y-65543056D01*
X20265312Y-65610976D01*
X20116012Y-65640673D01*
X20091242Y-65645600D01*
X19913758Y-65645600D01*
X19888988Y-65640673D01*
X19739688Y-65610976D01*
X19575716Y-65543056D01*
X19428146Y-65444453D01*
X19302647Y-65318954D01*
X19204044Y-65171384D01*
X19136124Y-65007412D01*
X19101500Y-64833341D01*
X19101500Y-64655859D01*
X19136124Y-64481788D01*
X19204044Y-64317816D01*
X19302647Y-64170246D01*
X19428146Y-64044747D01*
X19575716Y-63946144D01*
X19739688Y-63878224D01*
X19888988Y-63848527D01*
X19913758Y-63843600D01*
X20091242Y-63843600D01*
X20116012Y-63848527D01*
G37*
G36*
X22656012Y-63848527D02*
G01*
X22805312Y-63878224D01*
X22969284Y-63946144D01*
X23116854Y-64044747D01*
X23242353Y-64170246D01*
X23340956Y-64317816D01*
X23408876Y-64481788D01*
X23443500Y-64655859D01*
X23443500Y-64833341D01*
X23408876Y-65007412D01*
X23340956Y-65171384D01*
X23242353Y-65318954D01*
X23116854Y-65444453D01*
X22969284Y-65543056D01*
X22805312Y-65610976D01*
X22656012Y-65640673D01*
X22631242Y-65645600D01*
X22453758Y-65645600D01*
X22428988Y-65640673D01*
X22279688Y-65610976D01*
X22115716Y-65543056D01*
X21968146Y-65444453D01*
X21842647Y-65318954D01*
X21744044Y-65171384D01*
X21676124Y-65007412D01*
X21641500Y-64833341D01*
X21641500Y-64655859D01*
X21676124Y-64481788D01*
X21744044Y-64317816D01*
X21842647Y-64170246D01*
X21968146Y-64044747D01*
X22115716Y-63946144D01*
X22279688Y-63878224D01*
X22428988Y-63848527D01*
X22453758Y-63843600D01*
X22631242Y-63843600D01*
X22656012Y-63848527D01*
G37*
G36*
X18363500Y-65645600D02*
G01*
X16561500Y-65645600D01*
X16561500Y-63843600D01*
X18363500Y-63843600D01*
X18363500Y-65645600D01*
G37*
G36*
X55810728Y-63926303D02*
G01*
X55965600Y-63990453D01*
X56104981Y-64083585D01*
X56223515Y-64202119D01*
X56316647Y-64341500D01*
X56380797Y-64496372D01*
X56413500Y-64660784D01*
X56413500Y-64828416D01*
X56380797Y-64992828D01*
X56316647Y-65147700D01*
X56223515Y-65287081D01*
X56104981Y-65405615D01*
X55965600Y-65498747D01*
X55810728Y-65562897D01*
X55646316Y-65595600D01*
X55478684Y-65595600D01*
X55314272Y-65562897D01*
X55159400Y-65498747D01*
X55020019Y-65405615D01*
X54901485Y-65287081D01*
X54808353Y-65147700D01*
X54744203Y-64992828D01*
X54711500Y-64828416D01*
X54711500Y-64660784D01*
X54744203Y-64496372D01*
X54808353Y-64341500D01*
X54901485Y-64202119D01*
X55020019Y-64083585D01*
X55159400Y-63990453D01*
X55314272Y-63926303D01*
X55478684Y-63893600D01*
X55646316Y-63893600D01*
X55810728Y-63926303D01*
G37*
G36*
X40570728Y-63926303D02*
G01*
X40725600Y-63990453D01*
X40864981Y-64083585D01*
X40983515Y-64202119D01*
X41076647Y-64341500D01*
X41140797Y-64496372D01*
X41173500Y-64660784D01*
X41173500Y-64828416D01*
X41140797Y-64992828D01*
X41076647Y-65147700D01*
X40983515Y-65287081D01*
X40864981Y-65405615D01*
X40725600Y-65498747D01*
X40570728Y-65562897D01*
X40406316Y-65595600D01*
X40238684Y-65595600D01*
X40074272Y-65562897D01*
X39919400Y-65498747D01*
X39780019Y-65405615D01*
X39661485Y-65287081D01*
X39568353Y-65147700D01*
X39504203Y-64992828D01*
X39471500Y-64828416D01*
X39471500Y-64660784D01*
X39504203Y-64496372D01*
X39568353Y-64341500D01*
X39661485Y-64202119D01*
X39780019Y-64083585D01*
X39919400Y-63990453D01*
X40074272Y-63926303D01*
X40238684Y-63893600D01*
X40406316Y-63893600D01*
X40570728Y-63926303D01*
G37*
G36*
X29793500Y-64375600D02*
G01*
X27991500Y-64375600D01*
X27991500Y-62573600D01*
X29793500Y-62573600D01*
X29793500Y-64375600D01*
G37*
G36*
X55810728Y-61386303D02*
G01*
X55965600Y-61450453D01*
X56104981Y-61543585D01*
X56223515Y-61662119D01*
X56316647Y-61801500D01*
X56380797Y-61956372D01*
X56413500Y-62120784D01*
X56413500Y-62288416D01*
X56380797Y-62452828D01*
X56316647Y-62607700D01*
X56223515Y-62747081D01*
X56104981Y-62865615D01*
X55965600Y-62958747D01*
X55810728Y-63022897D01*
X55646316Y-63055600D01*
X55478684Y-63055600D01*
X55314272Y-63022897D01*
X55159400Y-62958747D01*
X55020019Y-62865615D01*
X54901485Y-62747081D01*
X54808353Y-62607700D01*
X54744203Y-62452828D01*
X54711500Y-62288416D01*
X54711500Y-62120784D01*
X54744203Y-61956372D01*
X54808353Y-61801500D01*
X54901485Y-61662119D01*
X55020019Y-61543585D01*
X55159400Y-61450453D01*
X55314272Y-61386303D01*
X55478684Y-61353600D01*
X55646316Y-61353600D01*
X55810728Y-61386303D01*
G37*
G36*
X40570728Y-61386303D02*
G01*
X40725600Y-61450453D01*
X40864981Y-61543585D01*
X40983515Y-61662119D01*
X41076647Y-61801500D01*
X41140797Y-61956372D01*
X41173500Y-62120784D01*
X41173500Y-62288416D01*
X41140797Y-62452828D01*
X41076647Y-62607700D01*
X40983515Y-62747081D01*
X40864981Y-62865615D01*
X40725600Y-62958747D01*
X40570728Y-63022897D01*
X40406316Y-63055600D01*
X40238684Y-63055600D01*
X40074272Y-63022897D01*
X39919400Y-62958747D01*
X39780019Y-62865615D01*
X39661485Y-62747081D01*
X39568353Y-62607700D01*
X39504203Y-62452828D01*
X39471500Y-62288416D01*
X39471500Y-62120784D01*
X39504203Y-61956372D01*
X39568353Y-61801500D01*
X39661485Y-61662119D01*
X39780019Y-61543585D01*
X39919400Y-61450453D01*
X40074272Y-61386303D01*
X40238684Y-61353600D01*
X40406316Y-61353600D01*
X40570728Y-61386303D01*
G37*
G36*
X29006012Y-60038527D02*
G01*
X29155312Y-60068224D01*
X29319284Y-60136144D01*
X29466854Y-60234747D01*
X29592353Y-60360246D01*
X29690956Y-60507816D01*
X29758876Y-60671788D01*
X29793500Y-60845859D01*
X29793500Y-61023341D01*
X29758876Y-61197412D01*
X29690956Y-61361384D01*
X29592353Y-61508954D01*
X29466854Y-61634453D01*
X29319284Y-61733056D01*
X29155312Y-61800976D01*
X29006012Y-61830673D01*
X28981242Y-61835600D01*
X28803758Y-61835600D01*
X28778988Y-61830673D01*
X28629688Y-61800976D01*
X28465716Y-61733056D01*
X28318146Y-61634453D01*
X28192647Y-61508954D01*
X28094044Y-61361384D01*
X28026124Y-61197412D01*
X27991500Y-61023341D01*
X27991500Y-60845859D01*
X28026124Y-60671788D01*
X28094044Y-60507816D01*
X28192647Y-60360246D01*
X28318146Y-60234747D01*
X28465716Y-60136144D01*
X28629688Y-60068224D01*
X28778988Y-60038527D01*
X28803758Y-60033600D01*
X28981242Y-60033600D01*
X29006012Y-60038527D01*
G37*
G36*
X75813228Y-59822303D02*
G01*
X75968100Y-59886453D01*
X76107481Y-59979585D01*
X76226015Y-60098119D01*
X76319147Y-60237500D01*
X76383297Y-60392372D01*
X76416000Y-60556784D01*
X76416000Y-60724416D01*
X76383297Y-60888828D01*
X76319147Y-61043700D01*
X76226015Y-61183081D01*
X76107481Y-61301615D01*
X75968100Y-61394747D01*
X75813228Y-61458897D01*
X75648816Y-61491600D01*
X75481184Y-61491600D01*
X75316772Y-61458897D01*
X75161900Y-61394747D01*
X75022519Y-61301615D01*
X74903985Y-61183081D01*
X74810853Y-61043700D01*
X74746703Y-60888828D01*
X74714000Y-60724416D01*
X74714000Y-60556784D01*
X74746703Y-60392372D01*
X74810853Y-60237500D01*
X74903985Y-60098119D01*
X75022519Y-59979585D01*
X75161900Y-59886453D01*
X75316772Y-59822303D01*
X75481184Y-59789600D01*
X75648816Y-59789600D01*
X75813228Y-59822303D01*
G37*
G36*
X55810728Y-58846303D02*
G01*
X55965600Y-58910453D01*
X56104981Y-59003585D01*
X56223515Y-59122119D01*
X56316647Y-59261500D01*
X56380797Y-59416372D01*
X56413500Y-59580784D01*
X56413500Y-59748416D01*
X56380797Y-59912828D01*
X56316647Y-60067700D01*
X56223515Y-60207081D01*
X56104981Y-60325615D01*
X55965600Y-60418747D01*
X55810728Y-60482897D01*
X55646316Y-60515600D01*
X55478684Y-60515600D01*
X55314272Y-60482897D01*
X55159400Y-60418747D01*
X55020019Y-60325615D01*
X54901485Y-60207081D01*
X54808353Y-60067700D01*
X54744203Y-59912828D01*
X54711500Y-59748416D01*
X54711500Y-59580784D01*
X54744203Y-59416372D01*
X54808353Y-59261500D01*
X54901485Y-59122119D01*
X55020019Y-59003585D01*
X55159400Y-58910453D01*
X55314272Y-58846303D01*
X55478684Y-58813600D01*
X55646316Y-58813600D01*
X55810728Y-58846303D01*
G37*
G36*
X40570728Y-58846303D02*
G01*
X40725600Y-58910453D01*
X40864981Y-59003585D01*
X40983515Y-59122119D01*
X41076647Y-59261500D01*
X41140797Y-59416372D01*
X41173500Y-59580784D01*
X41173500Y-59748416D01*
X41140797Y-59912828D01*
X41076647Y-60067700D01*
X40983515Y-60207081D01*
X40864981Y-60325615D01*
X40725600Y-60418747D01*
X40570728Y-60482897D01*
X40406316Y-60515600D01*
X40238684Y-60515600D01*
X40074272Y-60482897D01*
X39919400Y-60418747D01*
X39780019Y-60325615D01*
X39661485Y-60207081D01*
X39568353Y-60067700D01*
X39504203Y-59912828D01*
X39471500Y-59748416D01*
X39471500Y-59580784D01*
X39504203Y-59416372D01*
X39568353Y-59261500D01*
X39661485Y-59122119D01*
X39780019Y-59003585D01*
X39919400Y-58910453D01*
X40074272Y-58846303D01*
X40238684Y-58813600D01*
X40406316Y-58813600D01*
X40570728Y-58846303D01*
G37*
G36*
X22656012Y-58133527D02*
G01*
X22805312Y-58163224D01*
X22969284Y-58231144D01*
X23116854Y-58329747D01*
X23242353Y-58455246D01*
X23340956Y-58602816D01*
X23408876Y-58766788D01*
X23443500Y-58940859D01*
X23443500Y-59118341D01*
X23408876Y-59292412D01*
X23340956Y-59456384D01*
X23242353Y-59603954D01*
X23116854Y-59729453D01*
X22969284Y-59828056D01*
X22805312Y-59895976D01*
X22656012Y-59925673D01*
X22631242Y-59930600D01*
X22453758Y-59930600D01*
X22428988Y-59925673D01*
X22279688Y-59895976D01*
X22115716Y-59828056D01*
X21968146Y-59729453D01*
X21842647Y-59603954D01*
X21744044Y-59456384D01*
X21676124Y-59292412D01*
X21641500Y-59118341D01*
X21641500Y-58940859D01*
X21676124Y-58766788D01*
X21744044Y-58602816D01*
X21842647Y-58455246D01*
X21968146Y-58329747D01*
X22115716Y-58231144D01*
X22279688Y-58163224D01*
X22428988Y-58133527D01*
X22453758Y-58128600D01*
X22631242Y-58128600D01*
X22656012Y-58133527D01*
G37*
G36*
X20116012Y-58133527D02*
G01*
X20265312Y-58163224D01*
X20429284Y-58231144D01*
X20576854Y-58329747D01*
X20702353Y-58455246D01*
X20800956Y-58602816D01*
X20868876Y-58766788D01*
X20903500Y-58940859D01*
X20903500Y-59118341D01*
X20868876Y-59292412D01*
X20800956Y-59456384D01*
X20702353Y-59603954D01*
X20576854Y-59729453D01*
X20429284Y-59828056D01*
X20265312Y-59895976D01*
X20116012Y-59925673D01*
X20091242Y-59930600D01*
X19913758Y-59930600D01*
X19888988Y-59925673D01*
X19739688Y-59895976D01*
X19575716Y-59828056D01*
X19428146Y-59729453D01*
X19302647Y-59603954D01*
X19204044Y-59456384D01*
X19136124Y-59292412D01*
X19101500Y-59118341D01*
X19101500Y-58940859D01*
X19136124Y-58766788D01*
X19204044Y-58602816D01*
X19302647Y-58455246D01*
X19428146Y-58329747D01*
X19575716Y-58231144D01*
X19739688Y-58163224D01*
X19888988Y-58133527D01*
X19913758Y-58128600D01*
X20091242Y-58128600D01*
X20116012Y-58133527D01*
G37*
G36*
X18363500Y-59930600D02*
G01*
X16561500Y-59930600D01*
X16561500Y-58128600D01*
X18363500Y-58128600D01*
X18363500Y-59930600D01*
G37*
G36*
X76416000Y-58991600D02*
G01*
X74714000Y-58991600D01*
X74714000Y-57289600D01*
X76416000Y-57289600D01*
X76416000Y-58991600D01*
G37*
G36*
X106407443Y-56427619D02*
G01*
X106473627Y-56434137D01*
X106643466Y-56485657D01*
X106799991Y-56569322D01*
X106815584Y-56582119D01*
X106937186Y-56681914D01*
X107016951Y-56779109D01*
X107049778Y-56819109D01*
X107133443Y-56975634D01*
X107184963Y-57145473D01*
X107202359Y-57322100D01*
X107184963Y-57498727D01*
X107133443Y-57668566D01*
X107049778Y-57825091D01*
X107035667Y-57842285D01*
X106937186Y-57962286D01*
X106848731Y-58034878D01*
X106799991Y-58074878D01*
X106643466Y-58158543D01*
X106473627Y-58210063D01*
X106407442Y-58216582D01*
X106341260Y-58223100D01*
X106002740Y-58223100D01*
X105936558Y-58216582D01*
X105870373Y-58210063D01*
X105700534Y-58158543D01*
X105544009Y-58074878D01*
X105495269Y-58034878D01*
X105406814Y-57962286D01*
X105308333Y-57842285D01*
X105294222Y-57825091D01*
X105210557Y-57668566D01*
X105159037Y-57498727D01*
X105141641Y-57322100D01*
X105159037Y-57145473D01*
X105210557Y-56975634D01*
X105294222Y-56819109D01*
X105327049Y-56779109D01*
X105406814Y-56681914D01*
X105528416Y-56582119D01*
X105544009Y-56569322D01*
X105700534Y-56485657D01*
X105870373Y-56434137D01*
X105936557Y-56427619D01*
X106002740Y-56421100D01*
X106341260Y-56421100D01*
X106407443Y-56427619D01*
G37*
G36*
X98787442Y-56387618D02*
G01*
X98853627Y-56394137D01*
X99023466Y-56445657D01*
X99179991Y-56529322D01*
X99215729Y-56558652D01*
X99317186Y-56641914D01*
X99382502Y-56721503D01*
X99429778Y-56779109D01*
X99513443Y-56935634D01*
X99564963Y-57105473D01*
X99582359Y-57282100D01*
X99564963Y-57458727D01*
X99513443Y-57628566D01*
X99429778Y-57785091D01*
X99400448Y-57820829D01*
X99317186Y-57922286D01*
X99228731Y-57994878D01*
X99179991Y-58034878D01*
X99023466Y-58118543D01*
X98853627Y-58170063D01*
X98787442Y-58176582D01*
X98721260Y-58183100D01*
X98382740Y-58183100D01*
X98316558Y-58176582D01*
X98250373Y-58170063D01*
X98080534Y-58118543D01*
X97924009Y-58034878D01*
X97875269Y-57994878D01*
X97786814Y-57922286D01*
X97703552Y-57820829D01*
X97674222Y-57785091D01*
X97590557Y-57628566D01*
X97539037Y-57458727D01*
X97521641Y-57282100D01*
X97539037Y-57105473D01*
X97590557Y-56935634D01*
X97674222Y-56779109D01*
X97721498Y-56721503D01*
X97786814Y-56641914D01*
X97888271Y-56558652D01*
X97924009Y-56529322D01*
X98080534Y-56445657D01*
X98250373Y-56394137D01*
X98316558Y-56387618D01*
X98382740Y-56381100D01*
X98721260Y-56381100D01*
X98787442Y-56387618D01*
G37*
G36*
X91167443Y-56347619D02*
G01*
X91233627Y-56354137D01*
X91403466Y-56405657D01*
X91559991Y-56489322D01*
X91595729Y-56518652D01*
X91697186Y-56601914D01*
X91762839Y-56681914D01*
X91809778Y-56739109D01*
X91893443Y-56895634D01*
X91944963Y-57065473D01*
X91962359Y-57242100D01*
X91944963Y-57418727D01*
X91893443Y-57588566D01*
X91809778Y-57745091D01*
X91780448Y-57780829D01*
X91697186Y-57882286D01*
X91623330Y-57942897D01*
X91559991Y-57994878D01*
X91403466Y-58078543D01*
X91233627Y-58130063D01*
X91167442Y-58136582D01*
X91101260Y-58143100D01*
X90762740Y-58143100D01*
X90696558Y-58136582D01*
X90630373Y-58130063D01*
X90460534Y-58078543D01*
X90304009Y-57994878D01*
X90240670Y-57942897D01*
X90166814Y-57882286D01*
X90083552Y-57780829D01*
X90054222Y-57745091D01*
X89970557Y-57588566D01*
X89919037Y-57418727D01*
X89901641Y-57242100D01*
X89919037Y-57065473D01*
X89970557Y-56895634D01*
X90054222Y-56739109D01*
X90101161Y-56681914D01*
X90166814Y-56601914D01*
X90268271Y-56518652D01*
X90304009Y-56489322D01*
X90460534Y-56405657D01*
X90630373Y-56354137D01*
X90696557Y-56347619D01*
X90762740Y-56341100D01*
X91101260Y-56341100D01*
X91167443Y-56347619D01*
G37*
G36*
X83547443Y-56307619D02*
G01*
X83613627Y-56314137D01*
X83783466Y-56365657D01*
X83939991Y-56449322D01*
X83957370Y-56463585D01*
X84077186Y-56561914D01*
X84142839Y-56641914D01*
X84189778Y-56699109D01*
X84273443Y-56855634D01*
X84324963Y-57025473D01*
X84342359Y-57202100D01*
X84324963Y-57378727D01*
X84273443Y-57548566D01*
X84189778Y-57705091D01*
X84160448Y-57740829D01*
X84077186Y-57842286D01*
X83979705Y-57922285D01*
X83939991Y-57954878D01*
X83783466Y-58038543D01*
X83613627Y-58090063D01*
X83547442Y-58096582D01*
X83481260Y-58103100D01*
X83142740Y-58103100D01*
X83076558Y-58096582D01*
X83010373Y-58090063D01*
X82840534Y-58038543D01*
X82684009Y-57954878D01*
X82644295Y-57922285D01*
X82546814Y-57842286D01*
X82463552Y-57740829D01*
X82434222Y-57705091D01*
X82350557Y-57548566D01*
X82299037Y-57378727D01*
X82281641Y-57202100D01*
X82299037Y-57025473D01*
X82350557Y-56855634D01*
X82434222Y-56699109D01*
X82481161Y-56641914D01*
X82546814Y-56561914D01*
X82666630Y-56463585D01*
X82684009Y-56449322D01*
X82840534Y-56365657D01*
X83010373Y-56314137D01*
X83076557Y-56307619D01*
X83142740Y-56301100D01*
X83481260Y-56301100D01*
X83547443Y-56307619D01*
G37*
G36*
X40570728Y-56306303D02*
G01*
X40725600Y-56370453D01*
X40864981Y-56463585D01*
X40983515Y-56582119D01*
X41076647Y-56721500D01*
X41140797Y-56876372D01*
X41173500Y-57040784D01*
X41173500Y-57208416D01*
X41140797Y-57372828D01*
X41076647Y-57527700D01*
X40983515Y-57667081D01*
X40864981Y-57785615D01*
X40725600Y-57878747D01*
X40570728Y-57942897D01*
X40406316Y-57975600D01*
X40238684Y-57975600D01*
X40074272Y-57942897D01*
X39919400Y-57878747D01*
X39780019Y-57785615D01*
X39661485Y-57667081D01*
X39568353Y-57527700D01*
X39504203Y-57372828D01*
X39471500Y-57208416D01*
X39471500Y-57040784D01*
X39504203Y-56876372D01*
X39568353Y-56721500D01*
X39661485Y-56582119D01*
X39780019Y-56463585D01*
X39919400Y-56370453D01*
X40074272Y-56306303D01*
X40238684Y-56273600D01*
X40406316Y-56273600D01*
X40570728Y-56306303D01*
G37*
G36*
X55810728Y-56306303D02*
G01*
X55965600Y-56370453D01*
X56104981Y-56463585D01*
X56223515Y-56582119D01*
X56316647Y-56721500D01*
X56380797Y-56876372D01*
X56413500Y-57040784D01*
X56413500Y-57208416D01*
X56380797Y-57372828D01*
X56316647Y-57527700D01*
X56223515Y-57667081D01*
X56104981Y-57785615D01*
X55965600Y-57878747D01*
X55810728Y-57942897D01*
X55646316Y-57975600D01*
X55478684Y-57975600D01*
X55314272Y-57942897D01*
X55159400Y-57878747D01*
X55020019Y-57785615D01*
X54901485Y-57667081D01*
X54808353Y-57527700D01*
X54744203Y-57372828D01*
X54711500Y-57208416D01*
X54711500Y-57040784D01*
X54744203Y-56876372D01*
X54808353Y-56721500D01*
X54901485Y-56582119D01*
X55020019Y-56463585D01*
X55159400Y-56370453D01*
X55314272Y-56306303D01*
X55478684Y-56273600D01*
X55646316Y-56273600D01*
X55810728Y-56306303D01*
G37*
G36*
X106407442Y-53927618D02*
G01*
X106473627Y-53934137D01*
X106643466Y-53985657D01*
X106799991Y-54069322D01*
X106835729Y-54098652D01*
X106937186Y-54181914D01*
X107016951Y-54279109D01*
X107049778Y-54319109D01*
X107049779Y-54319111D01*
X107132514Y-54473895D01*
X107133443Y-54475634D01*
X107184963Y-54645473D01*
X107202359Y-54822100D01*
X107184963Y-54998727D01*
X107133443Y-55168566D01*
X107049778Y-55325091D01*
X107038570Y-55338748D01*
X106937186Y-55462286D01*
X106848731Y-55534878D01*
X106799991Y-55574878D01*
X106643466Y-55658543D01*
X106473627Y-55710063D01*
X106407442Y-55716582D01*
X106341260Y-55723100D01*
X106002740Y-55723100D01*
X105936558Y-55716582D01*
X105870373Y-55710063D01*
X105700534Y-55658543D01*
X105544009Y-55574878D01*
X105495269Y-55534878D01*
X105406814Y-55462286D01*
X105305430Y-55338748D01*
X105294222Y-55325091D01*
X105210557Y-55168566D01*
X105159037Y-54998727D01*
X105141641Y-54822100D01*
X105159037Y-54645473D01*
X105210557Y-54475634D01*
X105211487Y-54473895D01*
X105294221Y-54319111D01*
X105294222Y-54319109D01*
X105327049Y-54279109D01*
X105406814Y-54181914D01*
X105508271Y-54098652D01*
X105544009Y-54069322D01*
X105700534Y-53985657D01*
X105870373Y-53934137D01*
X105936558Y-53927618D01*
X106002740Y-53921100D01*
X106341260Y-53921100D01*
X106407442Y-53927618D01*
G37*
G36*
X98787443Y-53887619D02*
G01*
X98853627Y-53894137D01*
X99023466Y-53945657D01*
X99179991Y-54029322D01*
X99195584Y-54042119D01*
X99317186Y-54141914D01*
X99396951Y-54239109D01*
X99429778Y-54279109D01*
X99513443Y-54435634D01*
X99564963Y-54605473D01*
X99582359Y-54782100D01*
X99564963Y-54958727D01*
X99513443Y-55128566D01*
X99429778Y-55285091D01*
X99400448Y-55320829D01*
X99317186Y-55422286D01*
X99228731Y-55494878D01*
X99179991Y-55534878D01*
X99023466Y-55618543D01*
X98853627Y-55670063D01*
X98787443Y-55676581D01*
X98721260Y-55683100D01*
X98382740Y-55683100D01*
X98316557Y-55676581D01*
X98250373Y-55670063D01*
X98080534Y-55618543D01*
X97924009Y-55534878D01*
X97875269Y-55494878D01*
X97786814Y-55422286D01*
X97703552Y-55320829D01*
X97674222Y-55285091D01*
X97590557Y-55128566D01*
X97539037Y-54958727D01*
X97521641Y-54782100D01*
X97539037Y-54605473D01*
X97590557Y-54435634D01*
X97674222Y-54279109D01*
X97707049Y-54239109D01*
X97786814Y-54141914D01*
X97908416Y-54042119D01*
X97924009Y-54029322D01*
X98080534Y-53945657D01*
X98250373Y-53894137D01*
X98316557Y-53887619D01*
X98382740Y-53881100D01*
X98721260Y-53881100D01*
X98787443Y-53887619D01*
G37*
G36*
X91167442Y-53847618D02*
G01*
X91233627Y-53854137D01*
X91403466Y-53905657D01*
X91559991Y-53989322D01*
X91595729Y-54018652D01*
X91697186Y-54101914D01*
X91762502Y-54181503D01*
X91809778Y-54239109D01*
X91893443Y-54395634D01*
X91944963Y-54565473D01*
X91962359Y-54742100D01*
X91944963Y-54918727D01*
X91893443Y-55088566D01*
X91809778Y-55245091D01*
X91780448Y-55280829D01*
X91697186Y-55382286D01*
X91608731Y-55454878D01*
X91559991Y-55494878D01*
X91403466Y-55578543D01*
X91233627Y-55630063D01*
X91167443Y-55636581D01*
X91101260Y-55643100D01*
X90762740Y-55643100D01*
X90696557Y-55636581D01*
X90630373Y-55630063D01*
X90460534Y-55578543D01*
X90304009Y-55494878D01*
X90255269Y-55454878D01*
X90166814Y-55382286D01*
X90083552Y-55280829D01*
X90054222Y-55245091D01*
X89970557Y-55088566D01*
X89919037Y-54918727D01*
X89901641Y-54742100D01*
X89919037Y-54565473D01*
X89970557Y-54395634D01*
X90054222Y-54239109D01*
X90101498Y-54181503D01*
X90166814Y-54101914D01*
X90268271Y-54018652D01*
X90304009Y-53989322D01*
X90460534Y-53905657D01*
X90630373Y-53854137D01*
X90696558Y-53847618D01*
X90762740Y-53841100D01*
X91101260Y-53841100D01*
X91167442Y-53847618D01*
G37*
G36*
X83547442Y-53807618D02*
G01*
X83613627Y-53814137D01*
X83783466Y-53865657D01*
X83939991Y-53949322D01*
X83975729Y-53978652D01*
X84077186Y-54061914D01*
X84142839Y-54141914D01*
X84189778Y-54199109D01*
X84273443Y-54355634D01*
X84324963Y-54525473D01*
X84342359Y-54702100D01*
X84324963Y-54878727D01*
X84273443Y-55048566D01*
X84189778Y-55205091D01*
X84160448Y-55240829D01*
X84077186Y-55342286D01*
X84003330Y-55402897D01*
X83939991Y-55454878D01*
X83783466Y-55538543D01*
X83613627Y-55590063D01*
X83547442Y-55596582D01*
X83481260Y-55603100D01*
X83142740Y-55603100D01*
X83076558Y-55596582D01*
X83010373Y-55590063D01*
X82840534Y-55538543D01*
X82684009Y-55454878D01*
X82620670Y-55402897D01*
X82546814Y-55342286D01*
X82463552Y-55240829D01*
X82434222Y-55205091D01*
X82350557Y-55048566D01*
X82299037Y-54878727D01*
X82281641Y-54702100D01*
X82299037Y-54525473D01*
X82350557Y-54355634D01*
X82434222Y-54199109D01*
X82481161Y-54141914D01*
X82546814Y-54061914D01*
X82648271Y-53978652D01*
X82684009Y-53949322D01*
X82840534Y-53865657D01*
X83010373Y-53814137D01*
X83076558Y-53807618D01*
X83142740Y-53801100D01*
X83481260Y-53801100D01*
X83547442Y-53807618D01*
G37*
G36*
X55810728Y-53766303D02*
G01*
X55965600Y-53830453D01*
X56104981Y-53923585D01*
X56223515Y-54042119D01*
X56316647Y-54181500D01*
X56380797Y-54336372D01*
X56413500Y-54500784D01*
X56413500Y-54668416D01*
X56380797Y-54832828D01*
X56316647Y-54987700D01*
X56223515Y-55127081D01*
X56104981Y-55245615D01*
X55965600Y-55338747D01*
X55810728Y-55402897D01*
X55646316Y-55435600D01*
X55478684Y-55435600D01*
X55314272Y-55402897D01*
X55159400Y-55338747D01*
X55020019Y-55245615D01*
X54901485Y-55127081D01*
X54808353Y-54987700D01*
X54744203Y-54832828D01*
X54711500Y-54668416D01*
X54711500Y-54500784D01*
X54744203Y-54336372D01*
X54808353Y-54181500D01*
X54901485Y-54042119D01*
X55020019Y-53923585D01*
X55159400Y-53830453D01*
X55314272Y-53766303D01*
X55478684Y-53733600D01*
X55646316Y-53733600D01*
X55810728Y-53766303D01*
G37*
G36*
X40570728Y-53766303D02*
G01*
X40725600Y-53830453D01*
X40864981Y-53923585D01*
X40983515Y-54042119D01*
X41076647Y-54181500D01*
X41140797Y-54336372D01*
X41173500Y-54500784D01*
X41173500Y-54668416D01*
X41140797Y-54832828D01*
X41076647Y-54987700D01*
X40983515Y-55127081D01*
X40864981Y-55245615D01*
X40725600Y-55338747D01*
X40570728Y-55402897D01*
X40406316Y-55435600D01*
X40238684Y-55435600D01*
X40074272Y-55402897D01*
X39919400Y-55338747D01*
X39780019Y-55245615D01*
X39661485Y-55127081D01*
X39568353Y-54987700D01*
X39504203Y-54832828D01*
X39471500Y-54668416D01*
X39471500Y-54500784D01*
X39504203Y-54336372D01*
X39568353Y-54181500D01*
X39661485Y-54042119D01*
X39780019Y-53923585D01*
X39919400Y-53830453D01*
X40074272Y-53766303D01*
X40238684Y-53733600D01*
X40406316Y-53733600D01*
X40570728Y-53766303D01*
G37*
G36*
X75813228Y-52837303D02*
G01*
X75968100Y-52901453D01*
X76107481Y-52994585D01*
X76226015Y-53113119D01*
X76319147Y-53252500D01*
X76383297Y-53407372D01*
X76416000Y-53571784D01*
X76416000Y-53739416D01*
X76383297Y-53903828D01*
X76319147Y-54058700D01*
X76226015Y-54198081D01*
X76107481Y-54316615D01*
X75968100Y-54409747D01*
X75813228Y-54473897D01*
X75648816Y-54506600D01*
X75481184Y-54506600D01*
X75316772Y-54473897D01*
X75161900Y-54409747D01*
X75022519Y-54316615D01*
X74903985Y-54198081D01*
X74810853Y-54058700D01*
X74746703Y-53903828D01*
X74714000Y-53739416D01*
X74714000Y-53571784D01*
X74746703Y-53407372D01*
X74810853Y-53252500D01*
X74903985Y-53113119D01*
X75022519Y-52994585D01*
X75161900Y-52901453D01*
X75316772Y-52837303D01*
X75481184Y-52804600D01*
X75648816Y-52804600D01*
X75813228Y-52837303D01*
G37*
G36*
X18173000Y-53580600D02*
G01*
X16371000Y-53580600D01*
X16371000Y-51778600D01*
X18173000Y-51778600D01*
X18173000Y-53580600D01*
G37*
G36*
X22465512Y-51783527D02*
G01*
X22614812Y-51813224D01*
X22778784Y-51881144D01*
X22926354Y-51979747D01*
X23051853Y-52105246D01*
X23150456Y-52252816D01*
X23218376Y-52416788D01*
X23253000Y-52590859D01*
X23253000Y-52768341D01*
X23218376Y-52942412D01*
X23150456Y-53106384D01*
X23051853Y-53253954D01*
X22926354Y-53379453D01*
X22778784Y-53478056D01*
X22614812Y-53545976D01*
X22465512Y-53575673D01*
X22440742Y-53580600D01*
X22263258Y-53580600D01*
X22238488Y-53575673D01*
X22089188Y-53545976D01*
X21925216Y-53478056D01*
X21777646Y-53379453D01*
X21652147Y-53253954D01*
X21553544Y-53106384D01*
X21485624Y-52942412D01*
X21451000Y-52768341D01*
X21451000Y-52590859D01*
X21485624Y-52416788D01*
X21553544Y-52252816D01*
X21652147Y-52105246D01*
X21777646Y-51979747D01*
X21925216Y-51881144D01*
X22089188Y-51813224D01*
X22238488Y-51783527D01*
X22263258Y-51778600D01*
X22440742Y-51778600D01*
X22465512Y-51783527D01*
G37*
G36*
X19925512Y-51783527D02*
G01*
X20074812Y-51813224D01*
X20238784Y-51881144D01*
X20386354Y-51979747D01*
X20511853Y-52105246D01*
X20610456Y-52252816D01*
X20678376Y-52416788D01*
X20713000Y-52590859D01*
X20713000Y-52768341D01*
X20678376Y-52942412D01*
X20610456Y-53106384D01*
X20511853Y-53253954D01*
X20386354Y-53379453D01*
X20238784Y-53478056D01*
X20074812Y-53545976D01*
X19925512Y-53575673D01*
X19900742Y-53580600D01*
X19723258Y-53580600D01*
X19698488Y-53575673D01*
X19549188Y-53545976D01*
X19385216Y-53478056D01*
X19237646Y-53379453D01*
X19112147Y-53253954D01*
X19013544Y-53106384D01*
X18945624Y-52942412D01*
X18911000Y-52768341D01*
X18911000Y-52590859D01*
X18945624Y-52416788D01*
X19013544Y-52252816D01*
X19112147Y-52105246D01*
X19237646Y-51979747D01*
X19385216Y-51881144D01*
X19549188Y-51813224D01*
X19698488Y-51783527D01*
X19723258Y-51778600D01*
X19900742Y-51778600D01*
X19925512Y-51783527D01*
G37*
G36*
X106407442Y-51427618D02*
G01*
X106473627Y-51434137D01*
X106643466Y-51485657D01*
X106799991Y-51569322D01*
X106835729Y-51598652D01*
X106937186Y-51681914D01*
X107016533Y-51778600D01*
X107049778Y-51819109D01*
X107049779Y-51819111D01*
X107125506Y-51960784D01*
X107133443Y-51975634D01*
X107184963Y-52145473D01*
X107202359Y-52322100D01*
X107184963Y-52498727D01*
X107133443Y-52668566D01*
X107049778Y-52825091D01*
X107039754Y-52837305D01*
X106937186Y-52962286D01*
X106848731Y-53034878D01*
X106799991Y-53074878D01*
X106643466Y-53158543D01*
X106473627Y-53210063D01*
X106407442Y-53216582D01*
X106341260Y-53223100D01*
X106002740Y-53223100D01*
X105936558Y-53216582D01*
X105870373Y-53210063D01*
X105700534Y-53158543D01*
X105544009Y-53074878D01*
X105495269Y-53034878D01*
X105406814Y-52962286D01*
X105304246Y-52837305D01*
X105294222Y-52825091D01*
X105210557Y-52668566D01*
X105159037Y-52498727D01*
X105141641Y-52322100D01*
X105159037Y-52145473D01*
X105210557Y-51975634D01*
X105218495Y-51960784D01*
X105294221Y-51819111D01*
X105294222Y-51819109D01*
X105327467Y-51778600D01*
X105406814Y-51681914D01*
X105508271Y-51598652D01*
X105544009Y-51569322D01*
X105700534Y-51485657D01*
X105870373Y-51434137D01*
X105936558Y-51427618D01*
X106002740Y-51421100D01*
X106341260Y-51421100D01*
X106407442Y-51427618D01*
G37*
G36*
X98787443Y-51387619D02*
G01*
X98853627Y-51394137D01*
X99023466Y-51445657D01*
X99179991Y-51529322D01*
X99215729Y-51558652D01*
X99317186Y-51641914D01*
X99396951Y-51739109D01*
X99429778Y-51779109D01*
X99513443Y-51935634D01*
X99564963Y-52105473D01*
X99582359Y-52282100D01*
X99564963Y-52458727D01*
X99513443Y-52628566D01*
X99429778Y-52785091D01*
X99418570Y-52798748D01*
X99317186Y-52922286D01*
X99229088Y-52994585D01*
X99179991Y-53034878D01*
X99179989Y-53034879D01*
X99046218Y-53106382D01*
X99023466Y-53118543D01*
X98853627Y-53170063D01*
X98787443Y-53176581D01*
X98721260Y-53183100D01*
X98382740Y-53183100D01*
X98316557Y-53176581D01*
X98250373Y-53170063D01*
X98080534Y-53118543D01*
X98057783Y-53106382D01*
X97924011Y-53034879D01*
X97924009Y-53034878D01*
X97874912Y-52994585D01*
X97786814Y-52922286D01*
X97685430Y-52798748D01*
X97674222Y-52785091D01*
X97590557Y-52628566D01*
X97539037Y-52458727D01*
X97521641Y-52282100D01*
X97539037Y-52105473D01*
X97590557Y-51935634D01*
X97674222Y-51779109D01*
X97707049Y-51739109D01*
X97786814Y-51641914D01*
X97888271Y-51558652D01*
X97924009Y-51529322D01*
X98080534Y-51445657D01*
X98250373Y-51394137D01*
X98316557Y-51387619D01*
X98382740Y-51381100D01*
X98721260Y-51381100D01*
X98787443Y-51387619D01*
G37*
G36*
X91167443Y-51347619D02*
G01*
X91233627Y-51354137D01*
X91403466Y-51405657D01*
X91559991Y-51489322D01*
X91575584Y-51502119D01*
X91697186Y-51601914D01*
X91762839Y-51681914D01*
X91809778Y-51739109D01*
X91893443Y-51895634D01*
X91944963Y-52065473D01*
X91962359Y-52242100D01*
X91944963Y-52418727D01*
X91893443Y-52588566D01*
X91809778Y-52745091D01*
X91790697Y-52768341D01*
X91697186Y-52882286D01*
X91623922Y-52942411D01*
X91559991Y-52994878D01*
X91403466Y-53078543D01*
X91233627Y-53130063D01*
X91167442Y-53136582D01*
X91101260Y-53143100D01*
X90762740Y-53143100D01*
X90696558Y-53136582D01*
X90630373Y-53130063D01*
X90460534Y-53078543D01*
X90304009Y-52994878D01*
X90240078Y-52942411D01*
X90166814Y-52882286D01*
X90073303Y-52768341D01*
X90054222Y-52745091D01*
X89970557Y-52588566D01*
X89919037Y-52418727D01*
X89901641Y-52242100D01*
X89919037Y-52065473D01*
X89970557Y-51895634D01*
X90054222Y-51739109D01*
X90101161Y-51681914D01*
X90166814Y-51601914D01*
X90288416Y-51502119D01*
X90304009Y-51489322D01*
X90460534Y-51405657D01*
X90630373Y-51354137D01*
X90696557Y-51347619D01*
X90762740Y-51341100D01*
X91101260Y-51341100D01*
X91167443Y-51347619D01*
G37*
G36*
X83547442Y-51307618D02*
G01*
X83613627Y-51314137D01*
X83783466Y-51365657D01*
X83939991Y-51449322D01*
X83975729Y-51478652D01*
X84077186Y-51561914D01*
X84142502Y-51641503D01*
X84189778Y-51699109D01*
X84273443Y-51855634D01*
X84324963Y-52025473D01*
X84342359Y-52202100D01*
X84324963Y-52378727D01*
X84273443Y-52548566D01*
X84189778Y-52705091D01*
X84160448Y-52740829D01*
X84077186Y-52842286D01*
X83979705Y-52922285D01*
X83939991Y-52954878D01*
X83783466Y-53038543D01*
X83613627Y-53090063D01*
X83547442Y-53096582D01*
X83481260Y-53103100D01*
X83142740Y-53103100D01*
X83076558Y-53096582D01*
X83010373Y-53090063D01*
X82840534Y-53038543D01*
X82684009Y-52954878D01*
X82644295Y-52922285D01*
X82546814Y-52842286D01*
X82463552Y-52740829D01*
X82434222Y-52705091D01*
X82350557Y-52548566D01*
X82299037Y-52378727D01*
X82281641Y-52202100D01*
X82299037Y-52025473D01*
X82350557Y-51855634D01*
X82434222Y-51699109D01*
X82481498Y-51641503D01*
X82546814Y-51561914D01*
X82648271Y-51478652D01*
X82684009Y-51449322D01*
X82840534Y-51365657D01*
X83010373Y-51314137D01*
X83076557Y-51307619D01*
X83142740Y-51301100D01*
X83481260Y-51301100D01*
X83547442Y-51307618D01*
G37*
G36*
X55810728Y-51226303D02*
G01*
X55965600Y-51290453D01*
X56104981Y-51383585D01*
X56223515Y-51502119D01*
X56316647Y-51641500D01*
X56380797Y-51796372D01*
X56413500Y-51960784D01*
X56413500Y-52128416D01*
X56380797Y-52292828D01*
X56316647Y-52447700D01*
X56223515Y-52587081D01*
X56104981Y-52705615D01*
X55965600Y-52798747D01*
X55810728Y-52862897D01*
X55646316Y-52895600D01*
X55478684Y-52895600D01*
X55314272Y-52862897D01*
X55159400Y-52798747D01*
X55020019Y-52705615D01*
X54901485Y-52587081D01*
X54808353Y-52447700D01*
X54744203Y-52292828D01*
X54711500Y-52128416D01*
X54711500Y-51960784D01*
X54744203Y-51796372D01*
X54808353Y-51641500D01*
X54901485Y-51502119D01*
X55020019Y-51383585D01*
X55159400Y-51290453D01*
X55314272Y-51226303D01*
X55478684Y-51193600D01*
X55646316Y-51193600D01*
X55810728Y-51226303D01*
G37*
G36*
X40570728Y-51226303D02*
G01*
X40725600Y-51290453D01*
X40864981Y-51383585D01*
X40983515Y-51502119D01*
X41076647Y-51641500D01*
X41140797Y-51796372D01*
X41173500Y-51960784D01*
X41173500Y-52128416D01*
X41140797Y-52292828D01*
X41076647Y-52447700D01*
X40983515Y-52587081D01*
X40864981Y-52705615D01*
X40725600Y-52798747D01*
X40570728Y-52862897D01*
X40406316Y-52895600D01*
X40238684Y-52895600D01*
X40074272Y-52862897D01*
X39919400Y-52798747D01*
X39780019Y-52705615D01*
X39661485Y-52587081D01*
X39568353Y-52447700D01*
X39504203Y-52292828D01*
X39471500Y-52128416D01*
X39471500Y-51960784D01*
X39504203Y-51796372D01*
X39568353Y-51641500D01*
X39661485Y-51502119D01*
X39780019Y-51383585D01*
X39919400Y-51290453D01*
X40074272Y-51226303D01*
X40238684Y-51193600D01*
X40406316Y-51193600D01*
X40570728Y-51226303D01*
G37*
G36*
X76416000Y-52006600D02*
G01*
X74714000Y-52006600D01*
X74714000Y-50304600D01*
X76416000Y-50304600D01*
X76416000Y-52006600D01*
G37*
G36*
X29793500Y-51675600D02*
G01*
X27991500Y-51675600D01*
X27991500Y-49873600D01*
X29793500Y-49873600D01*
X29793500Y-51675600D01*
G37*
G36*
X107055600Y-48925089D02*
G01*
X107088652Y-48935115D01*
X107119103Y-48951392D01*
X107145799Y-48973301D01*
X107167708Y-48999997D01*
X107183985Y-49030448D01*
X107194011Y-49063500D01*
X107198000Y-49104003D01*
X107198000Y-50540197D01*
X107194011Y-50580700D01*
X107183985Y-50613752D01*
X107167708Y-50644203D01*
X107145799Y-50670899D01*
X107119103Y-50692808D01*
X107088652Y-50709085D01*
X107055600Y-50719111D01*
X107015097Y-50723100D01*
X105328903Y-50723100D01*
X105288400Y-50719111D01*
X105255348Y-50709085D01*
X105224897Y-50692808D01*
X105198201Y-50670899D01*
X105176292Y-50644203D01*
X105160015Y-50613752D01*
X105149989Y-50580700D01*
X105146000Y-50540197D01*
X105146000Y-49104003D01*
X105149989Y-49063500D01*
X105160015Y-49030448D01*
X105176292Y-48999997D01*
X105198201Y-48973301D01*
X105224897Y-48951392D01*
X105255348Y-48935115D01*
X105288400Y-48925089D01*
X105328903Y-48921100D01*
X107015097Y-48921100D01*
X107055600Y-48925089D01*
G37*
G36*
X98787443Y-48887619D02*
G01*
X98853627Y-48894137D01*
X99023466Y-48945657D01*
X99179991Y-49029322D01*
X99191630Y-49038874D01*
X99317186Y-49141914D01*
X99396951Y-49239109D01*
X99429778Y-49279109D01*
X99429779Y-49279111D01*
X99505506Y-49420784D01*
X99513443Y-49435634D01*
X99564963Y-49605473D01*
X99582359Y-49782100D01*
X99564963Y-49958727D01*
X99513443Y-50128566D01*
X99429778Y-50285091D01*
X99413767Y-50304600D01*
X99317186Y-50422286D01*
X99228731Y-50494878D01*
X99179991Y-50534878D01*
X99023466Y-50618543D01*
X98853627Y-50670063D01*
X98787442Y-50676582D01*
X98721260Y-50683100D01*
X98382740Y-50683100D01*
X98316558Y-50676582D01*
X98250373Y-50670063D01*
X98080534Y-50618543D01*
X97924009Y-50534878D01*
X97875269Y-50494878D01*
X97786814Y-50422286D01*
X97690233Y-50304600D01*
X97674222Y-50285091D01*
X97590557Y-50128566D01*
X97539037Y-49958727D01*
X97521641Y-49782100D01*
X97539037Y-49605473D01*
X97590557Y-49435634D01*
X97598495Y-49420784D01*
X97674221Y-49279111D01*
X97674222Y-49279109D01*
X97707049Y-49239109D01*
X97786814Y-49141914D01*
X97912370Y-49038874D01*
X97924009Y-49029322D01*
X98080534Y-48945657D01*
X98250373Y-48894137D01*
X98316557Y-48887619D01*
X98382740Y-48881100D01*
X98721260Y-48881100D01*
X98787443Y-48887619D01*
G37*
G36*
X91167443Y-48847619D02*
G01*
X91233627Y-48854137D01*
X91403466Y-48905657D01*
X91403468Y-48905658D01*
X91441884Y-48926192D01*
X91559991Y-48989322D01*
X91572998Y-48999997D01*
X91697186Y-49101914D01*
X91776951Y-49199109D01*
X91809778Y-49239109D01*
X91893443Y-49395634D01*
X91944963Y-49565473D01*
X91962359Y-49742100D01*
X91944963Y-49918727D01*
X91893443Y-50088566D01*
X91809778Y-50245091D01*
X91798570Y-50258748D01*
X91697186Y-50382286D01*
X91608731Y-50454878D01*
X91559991Y-50494878D01*
X91403466Y-50578543D01*
X91233627Y-50630063D01*
X91167443Y-50636581D01*
X91101260Y-50643100D01*
X90762740Y-50643100D01*
X90696557Y-50636581D01*
X90630373Y-50630063D01*
X90460534Y-50578543D01*
X90304009Y-50494878D01*
X90255269Y-50454878D01*
X90166814Y-50382286D01*
X90065430Y-50258748D01*
X90054222Y-50245091D01*
X89970557Y-50088566D01*
X89919037Y-49918727D01*
X89901641Y-49742100D01*
X89919037Y-49565473D01*
X89970557Y-49395634D01*
X90054222Y-49239109D01*
X90087049Y-49199109D01*
X90166814Y-49101914D01*
X90291002Y-48999997D01*
X90304009Y-48989322D01*
X90422116Y-48926192D01*
X90460532Y-48905658D01*
X90460534Y-48905657D01*
X90630373Y-48854137D01*
X90696558Y-48847618D01*
X90762740Y-48841100D01*
X91101260Y-48841100D01*
X91167443Y-48847619D01*
G37*
G36*
X83547442Y-48807618D02*
G01*
X83613627Y-48814137D01*
X83783466Y-48865657D01*
X83939991Y-48949322D01*
X83969209Y-48973301D01*
X84077186Y-49061914D01*
X84142839Y-49141914D01*
X84189778Y-49199109D01*
X84273443Y-49355634D01*
X84324963Y-49525473D01*
X84342359Y-49702100D01*
X84324963Y-49878727D01*
X84273443Y-50048566D01*
X84189778Y-50205091D01*
X84160448Y-50240829D01*
X84077186Y-50342286D01*
X83979705Y-50422285D01*
X83939991Y-50454878D01*
X83783466Y-50538543D01*
X83613627Y-50590063D01*
X83547443Y-50596581D01*
X83481260Y-50603100D01*
X83142740Y-50603100D01*
X83076557Y-50596581D01*
X83010373Y-50590063D01*
X82840534Y-50538543D01*
X82684009Y-50454878D01*
X82644295Y-50422285D01*
X82546814Y-50342286D01*
X82463552Y-50240829D01*
X82434222Y-50205091D01*
X82350557Y-50048566D01*
X82299037Y-49878727D01*
X82281641Y-49702100D01*
X82299037Y-49525473D01*
X82350557Y-49355634D01*
X82434222Y-49199109D01*
X82481161Y-49141914D01*
X82546814Y-49061914D01*
X82654791Y-48973301D01*
X82684009Y-48949322D01*
X82840534Y-48865657D01*
X83010373Y-48814137D01*
X83076557Y-48807619D01*
X83142740Y-48801100D01*
X83481260Y-48801100D01*
X83547442Y-48807618D01*
G37*
G36*
X55810728Y-48686303D02*
G01*
X55965600Y-48750453D01*
X56104981Y-48843585D01*
X56223515Y-48962119D01*
X56316647Y-49101500D01*
X56380797Y-49256372D01*
X56413500Y-49420784D01*
X56413500Y-49588416D01*
X56380797Y-49752828D01*
X56316647Y-49907700D01*
X56223515Y-50047081D01*
X56104981Y-50165615D01*
X55965600Y-50258747D01*
X55810728Y-50322897D01*
X55646316Y-50355600D01*
X55478684Y-50355600D01*
X55314272Y-50322897D01*
X55159400Y-50258747D01*
X55020019Y-50165615D01*
X54901485Y-50047081D01*
X54808353Y-49907700D01*
X54744203Y-49752828D01*
X54711500Y-49588416D01*
X54711500Y-49420784D01*
X54744203Y-49256372D01*
X54808353Y-49101500D01*
X54901485Y-48962119D01*
X55020019Y-48843585D01*
X55159400Y-48750453D01*
X55314272Y-48686303D01*
X55478684Y-48653600D01*
X55646316Y-48653600D01*
X55810728Y-48686303D01*
G37*
G36*
X40570728Y-48686303D02*
G01*
X40725600Y-48750453D01*
X40864981Y-48843585D01*
X40983515Y-48962119D01*
X41076647Y-49101500D01*
X41140797Y-49256372D01*
X41173500Y-49420784D01*
X41173500Y-49588416D01*
X41140797Y-49752828D01*
X41076647Y-49907700D01*
X40983515Y-50047081D01*
X40864981Y-50165615D01*
X40725600Y-50258747D01*
X40570728Y-50322897D01*
X40406316Y-50355600D01*
X40238684Y-50355600D01*
X40074272Y-50322897D01*
X39919400Y-50258747D01*
X39780019Y-50165615D01*
X39661485Y-50047081D01*
X39568353Y-49907700D01*
X39504203Y-49752828D01*
X39471500Y-49588416D01*
X39471500Y-49420784D01*
X39504203Y-49256372D01*
X39568353Y-49101500D01*
X39661485Y-48962119D01*
X39780019Y-48843585D01*
X39919400Y-48750453D01*
X40074272Y-48686303D01*
X40238684Y-48653600D01*
X40406316Y-48653600D01*
X40570728Y-48686303D01*
G37*
G36*
X69217333Y-50354850D02*
G01*
X67315333Y-50354850D01*
X67315333Y-48535350D01*
X69217333Y-48535350D01*
X69217333Y-50354850D01*
G37*
G36*
X29006012Y-47338527D02*
G01*
X29155312Y-47368224D01*
X29319284Y-47436144D01*
X29466854Y-47534747D01*
X29592353Y-47660246D01*
X29690956Y-47807816D01*
X29758876Y-47971788D01*
X29793500Y-48145859D01*
X29793500Y-48323341D01*
X29758876Y-48497412D01*
X29690956Y-48661384D01*
X29592353Y-48808954D01*
X29466854Y-48934453D01*
X29319284Y-49033056D01*
X29155312Y-49100976D01*
X29006012Y-49130673D01*
X28981242Y-49135600D01*
X28803758Y-49135600D01*
X28778988Y-49130673D01*
X28629688Y-49100976D01*
X28465716Y-49033056D01*
X28318146Y-48934453D01*
X28192647Y-48808954D01*
X28094044Y-48661384D01*
X28026124Y-48497412D01*
X27991500Y-48323341D01*
X27991500Y-48145859D01*
X28026124Y-47971788D01*
X28094044Y-47807816D01*
X28192647Y-47660246D01*
X28318146Y-47534747D01*
X28465716Y-47436144D01*
X28629688Y-47368224D01*
X28778988Y-47338527D01*
X28803758Y-47333600D01*
X28981242Y-47333600D01*
X29006012Y-47338527D01*
G37*
G36*
X99435600Y-46385089D02*
G01*
X99468652Y-46395115D01*
X99499103Y-46411392D01*
X99525799Y-46433301D01*
X99547708Y-46459997D01*
X99563985Y-46490448D01*
X99574011Y-46523500D01*
X99578000Y-46564003D01*
X99578000Y-48000197D01*
X99574011Y-48040700D01*
X99563985Y-48073752D01*
X99547708Y-48104203D01*
X99525799Y-48130899D01*
X99499103Y-48152808D01*
X99468652Y-48169085D01*
X99435600Y-48179111D01*
X99395097Y-48183100D01*
X97708903Y-48183100D01*
X97668400Y-48179111D01*
X97635348Y-48169085D01*
X97604897Y-48152808D01*
X97578201Y-48130899D01*
X97556292Y-48104203D01*
X97540015Y-48073752D01*
X97529989Y-48040700D01*
X97526000Y-48000197D01*
X97526000Y-46564003D01*
X97529989Y-46523500D01*
X97540015Y-46490448D01*
X97556292Y-46459997D01*
X97578201Y-46433301D01*
X97604897Y-46411392D01*
X97635348Y-46395115D01*
X97668400Y-46385089D01*
X97708903Y-46381100D01*
X99395097Y-46381100D01*
X99435600Y-46385089D01*
G37*
G36*
X91167442Y-46347618D02*
G01*
X91233627Y-46354137D01*
X91403466Y-46405657D01*
X91403468Y-46405658D01*
X91434737Y-46422372D01*
X91559991Y-46489322D01*
X91595729Y-46518652D01*
X91697186Y-46601914D01*
X91776951Y-46699109D01*
X91809778Y-46739109D01*
X91809779Y-46739111D01*
X91885506Y-46880784D01*
X91893443Y-46895634D01*
X91944963Y-47065473D01*
X91962359Y-47242100D01*
X91944963Y-47418727D01*
X91893443Y-47588566D01*
X91809778Y-47745091D01*
X91780448Y-47780829D01*
X91697186Y-47882286D01*
X91608731Y-47954878D01*
X91559991Y-47994878D01*
X91403466Y-48078543D01*
X91233627Y-48130063D01*
X91167443Y-48136581D01*
X91101260Y-48143100D01*
X90762740Y-48143100D01*
X90696557Y-48136581D01*
X90630373Y-48130063D01*
X90460534Y-48078543D01*
X90304009Y-47994878D01*
X90255269Y-47954878D01*
X90166814Y-47882286D01*
X90083552Y-47780829D01*
X90054222Y-47745091D01*
X89970557Y-47588566D01*
X89919037Y-47418727D01*
X89901641Y-47242100D01*
X89919037Y-47065473D01*
X89970557Y-46895634D01*
X89978495Y-46880784D01*
X90054221Y-46739111D01*
X90054222Y-46739109D01*
X90087049Y-46699109D01*
X90166814Y-46601914D01*
X90268271Y-46518652D01*
X90304009Y-46489322D01*
X90429263Y-46422372D01*
X90460532Y-46405658D01*
X90460534Y-46405657D01*
X90630373Y-46354137D01*
X90696558Y-46347618D01*
X90762740Y-46341100D01*
X91101260Y-46341100D01*
X91167442Y-46347618D01*
G37*
G36*
X83547442Y-46307618D02*
G01*
X83613627Y-46314137D01*
X83783466Y-46365657D01*
X83783468Y-46365658D01*
X83821884Y-46386192D01*
X83939991Y-46449322D01*
X83952998Y-46459997D01*
X84077186Y-46561914D01*
X84147198Y-46647225D01*
X84189778Y-46699109D01*
X84273443Y-46855634D01*
X84324963Y-47025473D01*
X84342359Y-47202100D01*
X84324963Y-47378727D01*
X84273443Y-47548566D01*
X84189778Y-47705091D01*
X84178570Y-47718748D01*
X84077186Y-47842286D01*
X83988352Y-47915189D01*
X83939991Y-47954878D01*
X83783466Y-48038543D01*
X83613627Y-48090063D01*
X83547442Y-48096582D01*
X83481260Y-48103100D01*
X83142740Y-48103100D01*
X83076557Y-48096581D01*
X83010373Y-48090063D01*
X82840534Y-48038543D01*
X82684009Y-47954878D01*
X82635648Y-47915189D01*
X82546814Y-47842286D01*
X82445430Y-47718748D01*
X82434222Y-47705091D01*
X82350557Y-47548566D01*
X82299037Y-47378727D01*
X82281641Y-47202100D01*
X82299037Y-47025473D01*
X82350557Y-46855634D01*
X82434222Y-46699109D01*
X82476802Y-46647225D01*
X82546814Y-46561914D01*
X82671002Y-46459997D01*
X82684009Y-46449322D01*
X82802116Y-46386192D01*
X82840532Y-46365658D01*
X82840534Y-46365657D01*
X83010373Y-46314137D01*
X83076558Y-46307618D01*
X83142740Y-46301100D01*
X83481260Y-46301100D01*
X83547442Y-46307618D01*
G37*
G36*
X68419096Y-46251932D02*
G01*
X68485925Y-46258514D01*
X68612792Y-46296999D01*
X68657417Y-46310536D01*
X68815454Y-46395008D01*
X68815457Y-46395010D01*
X68815458Y-46395011D01*
X68953985Y-46508698D01*
X69066749Y-46646100D01*
X69067675Y-46647229D01*
X69152147Y-46805266D01*
X69152148Y-46805270D01*
X69204169Y-46976758D01*
X69221734Y-47155100D01*
X69204169Y-47333442D01*
X69176471Y-47424748D01*
X69152147Y-47504934D01*
X69067675Y-47662971D01*
X69067673Y-47662974D01*
X69067672Y-47662975D01*
X69033108Y-47705091D01*
X68953985Y-47801502D01*
X68815454Y-47915192D01*
X68657417Y-47999664D01*
X68612792Y-48013201D01*
X68485925Y-48051686D01*
X68419096Y-48058268D01*
X68352269Y-48064850D01*
X68180397Y-48064850D01*
X68113570Y-48058268D01*
X68046741Y-48051686D01*
X67919874Y-48013201D01*
X67875249Y-47999664D01*
X67717212Y-47915192D01*
X67578681Y-47801502D01*
X67499558Y-47705091D01*
X67464994Y-47662975D01*
X67464993Y-47662974D01*
X67464991Y-47662971D01*
X67380519Y-47504934D01*
X67356195Y-47424748D01*
X67328497Y-47333442D01*
X67310932Y-47155100D01*
X67328497Y-46976758D01*
X67380518Y-46805270D01*
X67380519Y-46805266D01*
X67464991Y-46647229D01*
X67465918Y-46646100D01*
X67578681Y-46508698D01*
X67717208Y-46395011D01*
X67717209Y-46395010D01*
X67717212Y-46395008D01*
X67875249Y-46310536D01*
X67919874Y-46296999D01*
X68046741Y-46258514D01*
X68113570Y-46251932D01*
X68180397Y-46245350D01*
X68352269Y-46245350D01*
X68419096Y-46251932D01*
G37*
G36*
X40570728Y-46146303D02*
G01*
X40725600Y-46210453D01*
X40864981Y-46303585D01*
X40983515Y-46422119D01*
X41076647Y-46561500D01*
X41140797Y-46716372D01*
X41173500Y-46880784D01*
X41173500Y-47048416D01*
X41140797Y-47212828D01*
X41076647Y-47367700D01*
X40983515Y-47507081D01*
X40864981Y-47625615D01*
X40725600Y-47718747D01*
X40570728Y-47782897D01*
X40406316Y-47815600D01*
X40238684Y-47815600D01*
X40074272Y-47782897D01*
X39919400Y-47718747D01*
X39780019Y-47625615D01*
X39661485Y-47507081D01*
X39568353Y-47367700D01*
X39504203Y-47212828D01*
X39471500Y-47048416D01*
X39471500Y-46880784D01*
X39504203Y-46716372D01*
X39568353Y-46561500D01*
X39661485Y-46422119D01*
X39780019Y-46303585D01*
X39919400Y-46210453D01*
X40074272Y-46146303D01*
X40238684Y-46113600D01*
X40406316Y-46113600D01*
X40570728Y-46146303D01*
G37*
G36*
X55810728Y-46146303D02*
G01*
X55965600Y-46210453D01*
X56104981Y-46303585D01*
X56223515Y-46422119D01*
X56316647Y-46561500D01*
X56380797Y-46716372D01*
X56413500Y-46880784D01*
X56413500Y-47048416D01*
X56380797Y-47212828D01*
X56316647Y-47367700D01*
X56223515Y-47507081D01*
X56104981Y-47625615D01*
X55965600Y-47718747D01*
X55810728Y-47782897D01*
X55646316Y-47815600D01*
X55478684Y-47815600D01*
X55314272Y-47782897D01*
X55159400Y-47718747D01*
X55020019Y-47625615D01*
X54901485Y-47507081D01*
X54808353Y-47367700D01*
X54744203Y-47212828D01*
X54711500Y-47048416D01*
X54711500Y-46880784D01*
X54744203Y-46716372D01*
X54808353Y-46561500D01*
X54901485Y-46422119D01*
X55020019Y-46303585D01*
X55159400Y-46210453D01*
X55314272Y-46146303D01*
X55478684Y-46113600D01*
X55646316Y-46113600D01*
X55810728Y-46146303D01*
G37*
G36*
X20116012Y-45751027D02*
G01*
X20265312Y-45780724D01*
X20429284Y-45848644D01*
X20576854Y-45947247D01*
X20702353Y-46072746D01*
X20800956Y-46220316D01*
X20868876Y-46384288D01*
X20889768Y-46489322D01*
X20903500Y-46558358D01*
X20903500Y-46735842D01*
X20899805Y-46754416D01*
X20868876Y-46909912D01*
X20800956Y-47073884D01*
X20702353Y-47221454D01*
X20576854Y-47346953D01*
X20429284Y-47445556D01*
X20265312Y-47513476D01*
X20116012Y-47543173D01*
X20091242Y-47548100D01*
X19913758Y-47548100D01*
X19888988Y-47543173D01*
X19739688Y-47513476D01*
X19575716Y-47445556D01*
X19428146Y-47346953D01*
X19302647Y-47221454D01*
X19204044Y-47073884D01*
X19136124Y-46909912D01*
X19105195Y-46754416D01*
X19101500Y-46735842D01*
X19101500Y-46558358D01*
X19115232Y-46489322D01*
X19136124Y-46384288D01*
X19204044Y-46220316D01*
X19302647Y-46072746D01*
X19428146Y-45947247D01*
X19575716Y-45848644D01*
X19739688Y-45780724D01*
X19888988Y-45751027D01*
X19913758Y-45746100D01*
X20091242Y-45746100D01*
X20116012Y-45751027D01*
G37*
G36*
X22656012Y-45751027D02*
G01*
X22805312Y-45780724D01*
X22969284Y-45848644D01*
X23116854Y-45947247D01*
X23242353Y-46072746D01*
X23340956Y-46220316D01*
X23408876Y-46384288D01*
X23429768Y-46489322D01*
X23443500Y-46558358D01*
X23443500Y-46735842D01*
X23439805Y-46754416D01*
X23408876Y-46909912D01*
X23340956Y-47073884D01*
X23242353Y-47221454D01*
X23116854Y-47346953D01*
X22969284Y-47445556D01*
X22805312Y-47513476D01*
X22656012Y-47543173D01*
X22631242Y-47548100D01*
X22453758Y-47548100D01*
X22428988Y-47543173D01*
X22279688Y-47513476D01*
X22115716Y-47445556D01*
X21968146Y-47346953D01*
X21842647Y-47221454D01*
X21744044Y-47073884D01*
X21676124Y-46909912D01*
X21645195Y-46754416D01*
X21641500Y-46735842D01*
X21641500Y-46558358D01*
X21655232Y-46489322D01*
X21676124Y-46384288D01*
X21744044Y-46220316D01*
X21842647Y-46072746D01*
X21968146Y-45947247D01*
X22115716Y-45848644D01*
X22279688Y-45780724D01*
X22428988Y-45751027D01*
X22453758Y-45746100D01*
X22631242Y-45746100D01*
X22656012Y-45751027D01*
G37*
G36*
X18363500Y-47548100D02*
G01*
X16561500Y-47548100D01*
X16561500Y-45746100D01*
X18363500Y-45746100D01*
X18363500Y-47548100D01*
G37*
G36*
X75813228Y-45852303D02*
G01*
X75968100Y-45916453D01*
X76107481Y-46009585D01*
X76226015Y-46128119D01*
X76319147Y-46267500D01*
X76383297Y-46422372D01*
X76416000Y-46586784D01*
X76416000Y-46754416D01*
X76383297Y-46918828D01*
X76319147Y-47073700D01*
X76226015Y-47213081D01*
X76107481Y-47331615D01*
X75968100Y-47424747D01*
X75813228Y-47488897D01*
X75648816Y-47521600D01*
X75481184Y-47521600D01*
X75316772Y-47488897D01*
X75161900Y-47424747D01*
X75022519Y-47331615D01*
X74903985Y-47213081D01*
X74810853Y-47073700D01*
X74746703Y-46918828D01*
X74714000Y-46754416D01*
X74714000Y-46586784D01*
X74746703Y-46422372D01*
X74810853Y-46267500D01*
X74903985Y-46128119D01*
X75022519Y-46009585D01*
X75161900Y-45916453D01*
X75316772Y-45852303D01*
X75481184Y-45819600D01*
X75648816Y-45819600D01*
X75813228Y-45852303D01*
G37*
G36*
X68419096Y-43961932D02*
G01*
X68485925Y-43968514D01*
X68605176Y-44004689D01*
X68657417Y-44020536D01*
X68815454Y-44105008D01*
X68815457Y-44105010D01*
X68815458Y-44105011D01*
X68953985Y-44218698D01*
X69066365Y-44355632D01*
X69067675Y-44357229D01*
X69152147Y-44515266D01*
X69152148Y-44515270D01*
X69204169Y-44686758D01*
X69221734Y-44865100D01*
X69204169Y-45043442D01*
X69165684Y-45170309D01*
X69152147Y-45214934D01*
X69067675Y-45372971D01*
X69067673Y-45372974D01*
X69067672Y-45372975D01*
X68953985Y-45511502D01*
X68848053Y-45598439D01*
X68815454Y-45625192D01*
X68657417Y-45709664D01*
X68612792Y-45723201D01*
X68485925Y-45761686D01*
X68419096Y-45768268D01*
X68352269Y-45774850D01*
X68180397Y-45774850D01*
X68113570Y-45768268D01*
X68046741Y-45761686D01*
X67919874Y-45723201D01*
X67875249Y-45709664D01*
X67717212Y-45625192D01*
X67684614Y-45598439D01*
X67578681Y-45511502D01*
X67464994Y-45372975D01*
X67464993Y-45372974D01*
X67464991Y-45372971D01*
X67380519Y-45214934D01*
X67366982Y-45170309D01*
X67328497Y-45043442D01*
X67310932Y-44865100D01*
X67328497Y-44686758D01*
X67380518Y-44515270D01*
X67380519Y-44515266D01*
X67464991Y-44357229D01*
X67466302Y-44355632D01*
X67578681Y-44218698D01*
X67717208Y-44105011D01*
X67717209Y-44105010D01*
X67717212Y-44105008D01*
X67875249Y-44020536D01*
X67927490Y-44004689D01*
X68046741Y-43968514D01*
X68113570Y-43961932D01*
X68180397Y-43955350D01*
X68352269Y-43955350D01*
X68419096Y-43961932D01*
G37*
G36*
X91815600Y-43845089D02*
G01*
X91848652Y-43855115D01*
X91879103Y-43871392D01*
X91905799Y-43893301D01*
X91927708Y-43919997D01*
X91943985Y-43950448D01*
X91954011Y-43983500D01*
X91958000Y-44024003D01*
X91958000Y-45460197D01*
X91954011Y-45500700D01*
X91943985Y-45533752D01*
X91927708Y-45564203D01*
X91905799Y-45590899D01*
X91879103Y-45612808D01*
X91848652Y-45629085D01*
X91815600Y-45639111D01*
X91775097Y-45643100D01*
X90088903Y-45643100D01*
X90048400Y-45639111D01*
X90015348Y-45629085D01*
X89984897Y-45612808D01*
X89958201Y-45590899D01*
X89936292Y-45564203D01*
X89920015Y-45533752D01*
X89909989Y-45500700D01*
X89906000Y-45460197D01*
X89906000Y-44024003D01*
X89909989Y-43983500D01*
X89920015Y-43950448D01*
X89936292Y-43919997D01*
X89958201Y-43893301D01*
X89984897Y-43871392D01*
X90015348Y-43855115D01*
X90048400Y-43845089D01*
X90088903Y-43841100D01*
X91775097Y-43841100D01*
X91815600Y-43845089D01*
G37*
G36*
X83547443Y-43807619D02*
G01*
X83613627Y-43814137D01*
X83783466Y-43865657D01*
X83939991Y-43949322D01*
X83951630Y-43958874D01*
X84077186Y-44061914D01*
X84160448Y-44163371D01*
X84189778Y-44199109D01*
X84189779Y-44199111D01*
X84265506Y-44340784D01*
X84273443Y-44355634D01*
X84324963Y-44525473D01*
X84342359Y-44702100D01*
X84324963Y-44878727D01*
X84273443Y-45048566D01*
X84189778Y-45205091D01*
X84181703Y-45214930D01*
X84077186Y-45342286D01*
X83975729Y-45425548D01*
X83939991Y-45454878D01*
X83783466Y-45538543D01*
X83613627Y-45590063D01*
X83547442Y-45596582D01*
X83481260Y-45603100D01*
X83142740Y-45603100D01*
X83076557Y-45596581D01*
X83010373Y-45590063D01*
X82840534Y-45538543D01*
X82684009Y-45454878D01*
X82648271Y-45425548D01*
X82546814Y-45342286D01*
X82442297Y-45214930D01*
X82434222Y-45205091D01*
X82350557Y-45048566D01*
X82299037Y-44878727D01*
X82281641Y-44702100D01*
X82299037Y-44525473D01*
X82350557Y-44355634D01*
X82358495Y-44340784D01*
X82434221Y-44199111D01*
X82434222Y-44199109D01*
X82463552Y-44163371D01*
X82546814Y-44061914D01*
X82672370Y-43958874D01*
X82684009Y-43949322D01*
X82840534Y-43865657D01*
X83010373Y-43814137D01*
X83076557Y-43807619D01*
X83142740Y-43801100D01*
X83481260Y-43801100D01*
X83547443Y-43807619D01*
G37*
G36*
X55810728Y-43606303D02*
G01*
X55965600Y-43670453D01*
X56104981Y-43763585D01*
X56223515Y-43882119D01*
X56316647Y-44021500D01*
X56380797Y-44176372D01*
X56413500Y-44340784D01*
X56413500Y-44508416D01*
X56380797Y-44672828D01*
X56316647Y-44827700D01*
X56223515Y-44967081D01*
X56104981Y-45085615D01*
X55965600Y-45178747D01*
X55810728Y-45242897D01*
X55646316Y-45275600D01*
X55478684Y-45275600D01*
X55314272Y-45242897D01*
X55159400Y-45178747D01*
X55020019Y-45085615D01*
X54901485Y-44967081D01*
X54808353Y-44827700D01*
X54744203Y-44672828D01*
X54711500Y-44508416D01*
X54711500Y-44340784D01*
X54744203Y-44176372D01*
X54808353Y-44021500D01*
X54901485Y-43882119D01*
X55020019Y-43763585D01*
X55159400Y-43670453D01*
X55314272Y-43606303D01*
X55478684Y-43573600D01*
X55646316Y-43573600D01*
X55810728Y-43606303D01*
G37*
G36*
X40570728Y-43606303D02*
G01*
X40725600Y-43670453D01*
X40864981Y-43763585D01*
X40983515Y-43882119D01*
X41076647Y-44021500D01*
X41140797Y-44176372D01*
X41173500Y-44340784D01*
X41173500Y-44508416D01*
X41140797Y-44672828D01*
X41076647Y-44827700D01*
X40983515Y-44967081D01*
X40864981Y-45085615D01*
X40725600Y-45178747D01*
X40570728Y-45242897D01*
X40406316Y-45275600D01*
X40238684Y-45275600D01*
X40074272Y-45242897D01*
X39919400Y-45178747D01*
X39780019Y-45085615D01*
X39661485Y-44967081D01*
X39568353Y-44827700D01*
X39504203Y-44672828D01*
X39471500Y-44508416D01*
X39471500Y-44340784D01*
X39504203Y-44176372D01*
X39568353Y-44021500D01*
X39661485Y-43882119D01*
X39780019Y-43763585D01*
X39919400Y-43670453D01*
X40074272Y-43606303D01*
X40238684Y-43573600D01*
X40406316Y-43573600D01*
X40570728Y-43606303D01*
G37*
G36*
X76416000Y-45021600D02*
G01*
X74714000Y-45021600D01*
X74714000Y-43319600D01*
X76416000Y-43319600D01*
X76416000Y-45021600D01*
G37*
G36*
X84195600Y-41305089D02*
G01*
X84228652Y-41315115D01*
X84259103Y-41331392D01*
X84285799Y-41353301D01*
X84307708Y-41379997D01*
X84323985Y-41410448D01*
X84334011Y-41443500D01*
X84338000Y-41484003D01*
X84338000Y-42920197D01*
X84334011Y-42960700D01*
X84323985Y-42993752D01*
X84307708Y-43024203D01*
X84285799Y-43050899D01*
X84259103Y-43072808D01*
X84228652Y-43089085D01*
X84195600Y-43099111D01*
X84155097Y-43103100D01*
X82468903Y-43103100D01*
X82428400Y-43099111D01*
X82395348Y-43089085D01*
X82364897Y-43072808D01*
X82338201Y-43050899D01*
X82316292Y-43024203D01*
X82300015Y-42993752D01*
X82289989Y-42960700D01*
X82286000Y-42920197D01*
X82286000Y-41484003D01*
X82289989Y-41443500D01*
X82300015Y-41410448D01*
X82316292Y-41379997D01*
X82338201Y-41353301D01*
X82364897Y-41331392D01*
X82395348Y-41315115D01*
X82428400Y-41305089D01*
X82468903Y-41301100D01*
X84155097Y-41301100D01*
X84195600Y-41305089D01*
G37*
G36*
X40570728Y-41066303D02*
G01*
X40725600Y-41130453D01*
X40864981Y-41223585D01*
X40983515Y-41342119D01*
X41076647Y-41481500D01*
X41140797Y-41636372D01*
X41173500Y-41800784D01*
X41173500Y-41968416D01*
X41140797Y-42132828D01*
X41076647Y-42287700D01*
X40983515Y-42427081D01*
X40864981Y-42545615D01*
X40725600Y-42638747D01*
X40570728Y-42702897D01*
X40406316Y-42735600D01*
X40238684Y-42735600D01*
X40074272Y-42702897D01*
X39919400Y-42638747D01*
X39780019Y-42545615D01*
X39661485Y-42427081D01*
X39568353Y-42287700D01*
X39504203Y-42132828D01*
X39471500Y-41968416D01*
X39471500Y-41800784D01*
X39504203Y-41636372D01*
X39568353Y-41481500D01*
X39661485Y-41342119D01*
X39780019Y-41223585D01*
X39919400Y-41130453D01*
X40074272Y-41066303D01*
X40238684Y-41033600D01*
X40406316Y-41033600D01*
X40570728Y-41066303D01*
G37*
G36*
X55810728Y-41066303D02*
G01*
X55965600Y-41130453D01*
X56104981Y-41223585D01*
X56223515Y-41342119D01*
X56316647Y-41481500D01*
X56380797Y-41636372D01*
X56413500Y-41800784D01*
X56413500Y-41968416D01*
X56380797Y-42132828D01*
X56316647Y-42287700D01*
X56223515Y-42427081D01*
X56104981Y-42545615D01*
X55965600Y-42638747D01*
X55810728Y-42702897D01*
X55646316Y-42735600D01*
X55478684Y-42735600D01*
X55314272Y-42702897D01*
X55159400Y-42638747D01*
X55020019Y-42545615D01*
X54901485Y-42427081D01*
X54808353Y-42287700D01*
X54744203Y-42132828D01*
X54711500Y-41968416D01*
X54711500Y-41800784D01*
X54744203Y-41636372D01*
X54808353Y-41481500D01*
X54901485Y-41342119D01*
X55020019Y-41223585D01*
X55159400Y-41130453D01*
X55314272Y-41066303D01*
X55478684Y-41033600D01*
X55646316Y-41033600D01*
X55810728Y-41066303D01*
G37*
G36*
X69090333Y-42734850D02*
G01*
X67188333Y-42734850D01*
X67188333Y-40915350D01*
X69090333Y-40915350D01*
X69090333Y-42734850D01*
G37*
G36*
X20116012Y-39083527D02*
G01*
X20265312Y-39113224D01*
X20429284Y-39181144D01*
X20576854Y-39279747D01*
X20702353Y-39405246D01*
X20800956Y-39552816D01*
X20868876Y-39716788D01*
X20898573Y-39866088D01*
X20902322Y-39884934D01*
X20903500Y-39890859D01*
X20903500Y-40068341D01*
X20868876Y-40242412D01*
X20800956Y-40406384D01*
X20702353Y-40553954D01*
X20576854Y-40679453D01*
X20429284Y-40778056D01*
X20265312Y-40845976D01*
X20116012Y-40875673D01*
X20091242Y-40880600D01*
X19913758Y-40880600D01*
X19888988Y-40875673D01*
X19739688Y-40845976D01*
X19575716Y-40778056D01*
X19428146Y-40679453D01*
X19302647Y-40553954D01*
X19204044Y-40406384D01*
X19136124Y-40242412D01*
X19101500Y-40068341D01*
X19101500Y-39890859D01*
X19102679Y-39884934D01*
X19106427Y-39866088D01*
X19136124Y-39716788D01*
X19204044Y-39552816D01*
X19302647Y-39405246D01*
X19428146Y-39279747D01*
X19575716Y-39181144D01*
X19739688Y-39113224D01*
X19888988Y-39083527D01*
X19913758Y-39078600D01*
X20091242Y-39078600D01*
X20116012Y-39083527D01*
G37*
G36*
X18363500Y-40880600D02*
G01*
X16561500Y-40880600D01*
X16561500Y-39078600D01*
X18363500Y-39078600D01*
X18363500Y-40880600D01*
G37*
G36*
X22656012Y-39083527D02*
G01*
X22805312Y-39113224D01*
X22969284Y-39181144D01*
X23116854Y-39279747D01*
X23242353Y-39405246D01*
X23340956Y-39552816D01*
X23408876Y-39716788D01*
X23438573Y-39866088D01*
X23442322Y-39884934D01*
X23443500Y-39890859D01*
X23443500Y-40068341D01*
X23408876Y-40242412D01*
X23340956Y-40406384D01*
X23242353Y-40553954D01*
X23116854Y-40679453D01*
X22969284Y-40778056D01*
X22805312Y-40845976D01*
X22656012Y-40875673D01*
X22631242Y-40880600D01*
X22453758Y-40880600D01*
X22428988Y-40875673D01*
X22279688Y-40845976D01*
X22115716Y-40778056D01*
X21968146Y-40679453D01*
X21842647Y-40553954D01*
X21744044Y-40406384D01*
X21676124Y-40242412D01*
X21641500Y-40068341D01*
X21641500Y-39890859D01*
X21642679Y-39884934D01*
X21646427Y-39866088D01*
X21676124Y-39716788D01*
X21744044Y-39552816D01*
X21842647Y-39405246D01*
X21968146Y-39279747D01*
X22115716Y-39181144D01*
X22279688Y-39113224D01*
X22428988Y-39083527D01*
X22453758Y-39078600D01*
X22631242Y-39078600D01*
X22656012Y-39083527D01*
G37*
G36*
X75813228Y-38867303D02*
G01*
X75968100Y-38931453D01*
X76107481Y-39024585D01*
X76226015Y-39143119D01*
X76319147Y-39282500D01*
X76383297Y-39437372D01*
X76416000Y-39601784D01*
X76416000Y-39769416D01*
X76383297Y-39933828D01*
X76319147Y-40088700D01*
X76226015Y-40228081D01*
X76107481Y-40346615D01*
X75968100Y-40439747D01*
X75813228Y-40503897D01*
X75648816Y-40536600D01*
X75481184Y-40536600D01*
X75316772Y-40503897D01*
X75161900Y-40439747D01*
X75022519Y-40346615D01*
X74903985Y-40228081D01*
X74810853Y-40088700D01*
X74746703Y-39933828D01*
X74714000Y-39769416D01*
X74714000Y-39601784D01*
X74746703Y-39437372D01*
X74810853Y-39282500D01*
X74903985Y-39143119D01*
X75022519Y-39024585D01*
X75161900Y-38931453D01*
X75316772Y-38867303D01*
X75481184Y-38834600D01*
X75648816Y-38834600D01*
X75813228Y-38867303D01*
G37*
G36*
X68292096Y-38631932D02*
G01*
X68358925Y-38638514D01*
X68485792Y-38676999D01*
X68530417Y-38690536D01*
X68688454Y-38775008D01*
X68688457Y-38775010D01*
X68688458Y-38775011D01*
X68826985Y-38888698D01*
X68862073Y-38931452D01*
X68940675Y-39027229D01*
X69025147Y-39185266D01*
X69025148Y-39185270D01*
X69077169Y-39356758D01*
X69094734Y-39535100D01*
X69077169Y-39713442D01*
X69060189Y-39769416D01*
X69025147Y-39884934D01*
X68940675Y-40042971D01*
X68940673Y-40042974D01*
X68940672Y-40042975D01*
X68903146Y-40088700D01*
X68826985Y-40181502D01*
X68688454Y-40295192D01*
X68530417Y-40379664D01*
X68485792Y-40393201D01*
X68358925Y-40431686D01*
X68292096Y-40438268D01*
X68225269Y-40444850D01*
X68053397Y-40444850D01*
X67986570Y-40438268D01*
X67919741Y-40431686D01*
X67792874Y-40393201D01*
X67748249Y-40379664D01*
X67590212Y-40295192D01*
X67451681Y-40181502D01*
X67375520Y-40088700D01*
X67337994Y-40042975D01*
X67337993Y-40042974D01*
X67337991Y-40042971D01*
X67253519Y-39884934D01*
X67218477Y-39769416D01*
X67201497Y-39713442D01*
X67183932Y-39535100D01*
X67201497Y-39356758D01*
X67253518Y-39185270D01*
X67253519Y-39185266D01*
X67337991Y-39027229D01*
X67416594Y-38931452D01*
X67451681Y-38888698D01*
X67590208Y-38775011D01*
X67590209Y-38775010D01*
X67590212Y-38775008D01*
X67748249Y-38690536D01*
X67792874Y-38676999D01*
X67919741Y-38638514D01*
X67986570Y-38631932D01*
X68053397Y-38625350D01*
X68225269Y-38625350D01*
X68292096Y-38631932D01*
G37*
G36*
X55810728Y-38526303D02*
G01*
X55965600Y-38590453D01*
X56104981Y-38683585D01*
X56223515Y-38802119D01*
X56316647Y-38941500D01*
X56380797Y-39096372D01*
X56413500Y-39260784D01*
X56413500Y-39428416D01*
X56380797Y-39592828D01*
X56316647Y-39747700D01*
X56223515Y-39887081D01*
X56104981Y-40005615D01*
X55965600Y-40098747D01*
X55810728Y-40162897D01*
X55646316Y-40195600D01*
X55478684Y-40195600D01*
X55314272Y-40162897D01*
X55159400Y-40098747D01*
X55020019Y-40005615D01*
X54901485Y-39887081D01*
X54808353Y-39747700D01*
X54744203Y-39592828D01*
X54711500Y-39428416D01*
X54711500Y-39260784D01*
X54744203Y-39096372D01*
X54808353Y-38941500D01*
X54901485Y-38802119D01*
X55020019Y-38683585D01*
X55159400Y-38590453D01*
X55314272Y-38526303D01*
X55478684Y-38493600D01*
X55646316Y-38493600D01*
X55810728Y-38526303D01*
G37*
G36*
X40570728Y-38526303D02*
G01*
X40725600Y-38590453D01*
X40864981Y-38683585D01*
X40983515Y-38802119D01*
X41076647Y-38941500D01*
X41140797Y-39096372D01*
X41173500Y-39260784D01*
X41173500Y-39428416D01*
X41140797Y-39592828D01*
X41076647Y-39747700D01*
X40983515Y-39887081D01*
X40864981Y-40005615D01*
X40725600Y-40098747D01*
X40570728Y-40162897D01*
X40406316Y-40195600D01*
X40238684Y-40195600D01*
X40074272Y-40162897D01*
X39919400Y-40098747D01*
X39780019Y-40005615D01*
X39661485Y-39887081D01*
X39568353Y-39747700D01*
X39504203Y-39592828D01*
X39471500Y-39428416D01*
X39471500Y-39260784D01*
X39504203Y-39096372D01*
X39568353Y-38941500D01*
X39661485Y-38802119D01*
X39780019Y-38683585D01*
X39919400Y-38590453D01*
X40074272Y-38526303D01*
X40238684Y-38493600D01*
X40406316Y-38493600D01*
X40570728Y-38526303D01*
G37*
G36*
X29793500Y-39610600D02*
G01*
X27991500Y-39610600D01*
X27991500Y-37808600D01*
X29793500Y-37808600D01*
X29793500Y-39610600D01*
G37*
G36*
X68292096Y-36341932D02*
G01*
X68358925Y-36348514D01*
X68485792Y-36386999D01*
X68530417Y-36400536D01*
X68688454Y-36485008D01*
X68826985Y-36598698D01*
X68940675Y-36737229D01*
X69025147Y-36895266D01*
X69025148Y-36895270D01*
X69077169Y-37066758D01*
X69094734Y-37245100D01*
X69077169Y-37423442D01*
X69038684Y-37550309D01*
X69025147Y-37594934D01*
X68940675Y-37752971D01*
X68826985Y-37891502D01*
X68688454Y-38005192D01*
X68530417Y-38089664D01*
X68485792Y-38103201D01*
X68358925Y-38141686D01*
X68292096Y-38148268D01*
X68225269Y-38154850D01*
X68053397Y-38154850D01*
X67986570Y-38148268D01*
X67919741Y-38141686D01*
X67792874Y-38103201D01*
X67748249Y-38089664D01*
X67590212Y-38005192D01*
X67451681Y-37891502D01*
X67337991Y-37752971D01*
X67253519Y-37594934D01*
X67239982Y-37550309D01*
X67201497Y-37423442D01*
X67183932Y-37245100D01*
X67201497Y-37066758D01*
X67253518Y-36895270D01*
X67253519Y-36895266D01*
X67337991Y-36737229D01*
X67451681Y-36598698D01*
X67590212Y-36485008D01*
X67748249Y-36400536D01*
X67792874Y-36386999D01*
X67919741Y-36348514D01*
X67986570Y-36341932D01*
X68053397Y-36335350D01*
X68225269Y-36335350D01*
X68292096Y-36341932D01*
G37*
G36*
X76416000Y-38036600D02*
G01*
X74714000Y-38036600D01*
X74714000Y-36334600D01*
X76416000Y-36334600D01*
X76416000Y-38036600D01*
G37*
G36*
X55810728Y-35986303D02*
G01*
X55965600Y-36050453D01*
X56104981Y-36143585D01*
X56223515Y-36262119D01*
X56316647Y-36401500D01*
X56380797Y-36556372D01*
X56413500Y-36720784D01*
X56413500Y-36888416D01*
X56380797Y-37052828D01*
X56316647Y-37207700D01*
X56223515Y-37347081D01*
X56104981Y-37465615D01*
X55965600Y-37558747D01*
X55810728Y-37622897D01*
X55646316Y-37655600D01*
X55478684Y-37655600D01*
X55314272Y-37622897D01*
X55159400Y-37558747D01*
X55020019Y-37465615D01*
X54901485Y-37347081D01*
X54808353Y-37207700D01*
X54744203Y-37052828D01*
X54711500Y-36888416D01*
X54711500Y-36720784D01*
X54744203Y-36556372D01*
X54808353Y-36401500D01*
X54901485Y-36262119D01*
X55020019Y-36143585D01*
X55159400Y-36050453D01*
X55314272Y-35986303D01*
X55478684Y-35953600D01*
X55646316Y-35953600D01*
X55810728Y-35986303D01*
G37*
G36*
X40570728Y-35986303D02*
G01*
X40725600Y-36050453D01*
X40864981Y-36143585D01*
X40983515Y-36262119D01*
X41076647Y-36401500D01*
X41140797Y-36556372D01*
X41173500Y-36720784D01*
X41173500Y-36888416D01*
X41140797Y-37052828D01*
X41076647Y-37207700D01*
X40983515Y-37347081D01*
X40864981Y-37465615D01*
X40725600Y-37558747D01*
X40570728Y-37622897D01*
X40406316Y-37655600D01*
X40238684Y-37655600D01*
X40074272Y-37622897D01*
X39919400Y-37558747D01*
X39780019Y-37465615D01*
X39661485Y-37347081D01*
X39568353Y-37207700D01*
X39504203Y-37052828D01*
X39471500Y-36888416D01*
X39471500Y-36720784D01*
X39504203Y-36556372D01*
X39568353Y-36401500D01*
X39661485Y-36262119D01*
X39780019Y-36143585D01*
X39919400Y-36050453D01*
X40074272Y-35986303D01*
X40238684Y-35953600D01*
X40406316Y-35953600D01*
X40570728Y-35986303D01*
G37*
G36*
X29006012Y-35273527D02*
G01*
X29155312Y-35303224D01*
X29319284Y-35371144D01*
X29466854Y-35469747D01*
X29592353Y-35595246D01*
X29690956Y-35742816D01*
X29758876Y-35906788D01*
X29793500Y-36080859D01*
X29793500Y-36258341D01*
X29758876Y-36432412D01*
X29690956Y-36596384D01*
X29592353Y-36743954D01*
X29466854Y-36869453D01*
X29319284Y-36968056D01*
X29155312Y-37035976D01*
X29006012Y-37065673D01*
X28981242Y-37070600D01*
X28803758Y-37070600D01*
X28778988Y-37065673D01*
X28629688Y-37035976D01*
X28465716Y-36968056D01*
X28318146Y-36869453D01*
X28192647Y-36743954D01*
X28094044Y-36596384D01*
X28026124Y-36432412D01*
X27991500Y-36258341D01*
X27991500Y-36080859D01*
X28026124Y-35906788D01*
X28094044Y-35742816D01*
X28192647Y-35595246D01*
X28318146Y-35469747D01*
X28465716Y-35371144D01*
X28629688Y-35303224D01*
X28778988Y-35273527D01*
X28803758Y-35268600D01*
X28981242Y-35268600D01*
X29006012Y-35273527D01*
G37*
G36*
X20116012Y-33368527D02*
G01*
X20265312Y-33398224D01*
X20429284Y-33466144D01*
X20576854Y-33564747D01*
X20702353Y-33690246D01*
X20800956Y-33837816D01*
X20868876Y-34001788D01*
X20903500Y-34175859D01*
X20903500Y-34353341D01*
X20868876Y-34527412D01*
X20800956Y-34691384D01*
X20702353Y-34838954D01*
X20576854Y-34964453D01*
X20429284Y-35063056D01*
X20265312Y-35130976D01*
X20116012Y-35160673D01*
X20091242Y-35165600D01*
X19913758Y-35165600D01*
X19888988Y-35160673D01*
X19739688Y-35130976D01*
X19575716Y-35063056D01*
X19428146Y-34964453D01*
X19302647Y-34838954D01*
X19204044Y-34691384D01*
X19136124Y-34527412D01*
X19101500Y-34353341D01*
X19101500Y-34175859D01*
X19136124Y-34001788D01*
X19204044Y-33837816D01*
X19302647Y-33690246D01*
X19428146Y-33564747D01*
X19575716Y-33466144D01*
X19739688Y-33398224D01*
X19888988Y-33368527D01*
X19913758Y-33363600D01*
X20091242Y-33363600D01*
X20116012Y-33368527D01*
G37*
G36*
X18363500Y-35165600D02*
G01*
X16561500Y-35165600D01*
X16561500Y-33363600D01*
X18363500Y-33363600D01*
X18363500Y-35165600D01*
G37*
G36*
X22656012Y-33368527D02*
G01*
X22805312Y-33398224D01*
X22969284Y-33466144D01*
X23116854Y-33564747D01*
X23242353Y-33690246D01*
X23340956Y-33837816D01*
X23408876Y-34001788D01*
X23443500Y-34175859D01*
X23443500Y-34353341D01*
X23408876Y-34527412D01*
X23340956Y-34691384D01*
X23242353Y-34838954D01*
X23116854Y-34964453D01*
X22969284Y-35063056D01*
X22805312Y-35130976D01*
X22656012Y-35160673D01*
X22631242Y-35165600D01*
X22453758Y-35165600D01*
X22428988Y-35160673D01*
X22279688Y-35130976D01*
X22115716Y-35063056D01*
X21968146Y-34964453D01*
X21842647Y-34838954D01*
X21744044Y-34691384D01*
X21676124Y-34527412D01*
X21641500Y-34353341D01*
X21641500Y-34175859D01*
X21676124Y-34001788D01*
X21744044Y-33837816D01*
X21842647Y-33690246D01*
X21968146Y-33564747D01*
X22115716Y-33466144D01*
X22279688Y-33398224D01*
X22428988Y-33368527D01*
X22453758Y-33363600D01*
X22631242Y-33363600D01*
X22656012Y-33368527D01*
G37*
G36*
X55810728Y-33446303D02*
G01*
X55965600Y-33510453D01*
X56104981Y-33603585D01*
X56223515Y-33722119D01*
X56316647Y-33861500D01*
X56380797Y-34016372D01*
X56413500Y-34180784D01*
X56413500Y-34348416D01*
X56380797Y-34512828D01*
X56316647Y-34667700D01*
X56223515Y-34807081D01*
X56104981Y-34925615D01*
X55965600Y-35018747D01*
X55810728Y-35082897D01*
X55646316Y-35115600D01*
X55478684Y-35115600D01*
X55314272Y-35082897D01*
X55159400Y-35018747D01*
X55020019Y-34925615D01*
X54901485Y-34807081D01*
X54808353Y-34667700D01*
X54744203Y-34512828D01*
X54711500Y-34348416D01*
X54711500Y-34180784D01*
X54744203Y-34016372D01*
X54808353Y-33861500D01*
X54901485Y-33722119D01*
X55020019Y-33603585D01*
X55159400Y-33510453D01*
X55314272Y-33446303D01*
X55478684Y-33413600D01*
X55646316Y-33413600D01*
X55810728Y-33446303D01*
G37*
G36*
X41173500Y-35115600D02*
G01*
X39471500Y-35115600D01*
X39471500Y-33413600D01*
X41173500Y-33413600D01*
X41173500Y-35115600D01*
G37*
G36*
X75813228Y-31882303D02*
G01*
X75968100Y-31946453D01*
X76107481Y-32039585D01*
X76226015Y-32158119D01*
X76319147Y-32297500D01*
X76383297Y-32452372D01*
X76416000Y-32616784D01*
X76416000Y-32784416D01*
X76383297Y-32948828D01*
X76319147Y-33103700D01*
X76226015Y-33243081D01*
X76107481Y-33361615D01*
X75968100Y-33454747D01*
X75813228Y-33518897D01*
X75648816Y-33551600D01*
X75481184Y-33551600D01*
X75316772Y-33518897D01*
X75161900Y-33454747D01*
X75022519Y-33361615D01*
X74903985Y-33243081D01*
X74810853Y-33103700D01*
X74746703Y-32948828D01*
X74714000Y-32784416D01*
X74714000Y-32616784D01*
X74746703Y-32452372D01*
X74810853Y-32297500D01*
X74903985Y-32158119D01*
X75022519Y-32039585D01*
X75161900Y-31946453D01*
X75316772Y-31882303D01*
X75481184Y-31849600D01*
X75648816Y-31849600D01*
X75813228Y-31882303D01*
G37*
G36*
X76416000Y-31051600D02*
G01*
X74714000Y-31051600D01*
X74714000Y-29349600D01*
X76416000Y-29349600D01*
X76416000Y-31051600D01*
G37*
G36*
X66964000Y-29727600D02*
G01*
X64862000Y-29727600D01*
X64862000Y-27625600D01*
X66964000Y-27625600D01*
X66964000Y-29727600D01*
G37*
G36*
X61219564Y-27665989D02*
G01*
X61351648Y-27720700D01*
X61410835Y-27745216D01*
X61557071Y-27842928D01*
X61582973Y-27860235D01*
X61729365Y-28006627D01*
X61844385Y-28178767D01*
X61923611Y-28370036D01*
X61964000Y-28573084D01*
X61964000Y-28780116D01*
X61923611Y-28983164D01*
X61844385Y-29174433D01*
X61844384Y-29174435D01*
X61729365Y-29346573D01*
X61582973Y-29492965D01*
X61410835Y-29607984D01*
X61410834Y-29607985D01*
X61410833Y-29607985D01*
X61219564Y-29687211D01*
X61016516Y-29727600D01*
X60809484Y-29727600D01*
X60606436Y-29687211D01*
X60415167Y-29607985D01*
X60415166Y-29607985D01*
X60415165Y-29607984D01*
X60243027Y-29492965D01*
X60096635Y-29346573D01*
X59981616Y-29174435D01*
X59981615Y-29174433D01*
X59902389Y-28983164D01*
X59862000Y-28780116D01*
X59862000Y-28573084D01*
X59902389Y-28370036D01*
X59981615Y-28178767D01*
X60096635Y-28006627D01*
X60243027Y-27860235D01*
X60268929Y-27842928D01*
X60415165Y-27745216D01*
X60474352Y-27720700D01*
X60606436Y-27665989D01*
X60809484Y-27625600D01*
X61016516Y-27625600D01*
X61219564Y-27665989D01*
G37*
G36*
X106343943Y-26940119D02*
G01*
X106410127Y-26946637D01*
X106579966Y-26998157D01*
X106736491Y-27081822D01*
X106772229Y-27111152D01*
X106873686Y-27194414D01*
X106956948Y-27295871D01*
X106986278Y-27331609D01*
X107069943Y-27488134D01*
X107121463Y-27657973D01*
X107138859Y-27834600D01*
X107121463Y-28011227D01*
X107069943Y-28181066D01*
X106986278Y-28337591D01*
X106959652Y-28370035D01*
X106873686Y-28474786D01*
X106772229Y-28558048D01*
X106736491Y-28587378D01*
X106579966Y-28671043D01*
X106410127Y-28722563D01*
X106343942Y-28729082D01*
X106277760Y-28735600D01*
X105939240Y-28735600D01*
X105873058Y-28729082D01*
X105806873Y-28722563D01*
X105637034Y-28671043D01*
X105480509Y-28587378D01*
X105444771Y-28558048D01*
X105343314Y-28474786D01*
X105257348Y-28370035D01*
X105230722Y-28337591D01*
X105147057Y-28181066D01*
X105095537Y-28011227D01*
X105078141Y-27834600D01*
X105095537Y-27657973D01*
X105147057Y-27488134D01*
X105230722Y-27331609D01*
X105260052Y-27295871D01*
X105343314Y-27194414D01*
X105444771Y-27111152D01*
X105480509Y-27081822D01*
X105637034Y-26998157D01*
X105806873Y-26946637D01*
X105873057Y-26940119D01*
X105939240Y-26933600D01*
X106277760Y-26933600D01*
X106343943Y-26940119D01*
G37*
G36*
X19616100Y-26065089D02*
G01*
X19649152Y-26075115D01*
X19679603Y-26091392D01*
X19706299Y-26113301D01*
X19728208Y-26139997D01*
X19744485Y-26170448D01*
X19754511Y-26203500D01*
X19758500Y-26244003D01*
X19758500Y-27680197D01*
X19754511Y-27720700D01*
X19744485Y-27753752D01*
X19728208Y-27784203D01*
X19706299Y-27810899D01*
X19679603Y-27832808D01*
X19649152Y-27849085D01*
X19616100Y-27859111D01*
X19575597Y-27863100D01*
X17889403Y-27863100D01*
X17848900Y-27859111D01*
X17815848Y-27849085D01*
X17785397Y-27832808D01*
X17758701Y-27810899D01*
X17736792Y-27784203D01*
X17720515Y-27753752D01*
X17710489Y-27720700D01*
X17706500Y-27680197D01*
X17706500Y-26244003D01*
X17710489Y-26203500D01*
X17720515Y-26170448D01*
X17736792Y-26139997D01*
X17758701Y-26113301D01*
X17785397Y-26091392D01*
X17815848Y-26075115D01*
X17848900Y-26065089D01*
X17889403Y-26061100D01*
X19575597Y-26061100D01*
X19616100Y-26065089D01*
G37*
G36*
X106343943Y-24440119D02*
G01*
X106410127Y-24446637D01*
X106579966Y-24498157D01*
X106736491Y-24581822D01*
X106772229Y-24611152D01*
X106873686Y-24694414D01*
X106956948Y-24795871D01*
X106986278Y-24831609D01*
X107069943Y-24988134D01*
X107121463Y-25157973D01*
X107138859Y-25334600D01*
X107121463Y-25511227D01*
X107069943Y-25681066D01*
X106986278Y-25837591D01*
X106956948Y-25873329D01*
X106873686Y-25974786D01*
X106772229Y-26058048D01*
X106736491Y-26087378D01*
X106579966Y-26171043D01*
X106410127Y-26222563D01*
X106343942Y-26229082D01*
X106277760Y-26235600D01*
X105939240Y-26235600D01*
X105873058Y-26229082D01*
X105806873Y-26222563D01*
X105637034Y-26171043D01*
X105480509Y-26087378D01*
X105444771Y-26058048D01*
X105343314Y-25974786D01*
X105260052Y-25873329D01*
X105230722Y-25837591D01*
X105147057Y-25681066D01*
X105095537Y-25511227D01*
X105078141Y-25334600D01*
X105095537Y-25157973D01*
X105147057Y-24988134D01*
X105230722Y-24831609D01*
X105260052Y-24795871D01*
X105343314Y-24694414D01*
X105444771Y-24611152D01*
X105480509Y-24581822D01*
X105637034Y-24498157D01*
X105806873Y-24446637D01*
X105873057Y-24440119D01*
X105939240Y-24433600D01*
X106277760Y-24433600D01*
X106343943Y-24440119D01*
G37*
G36*
X18967942Y-23567618D02*
G01*
X19034127Y-23574137D01*
X19203966Y-23625657D01*
X19360491Y-23709322D01*
X19367931Y-23715428D01*
X19497686Y-23821914D01*
X19580948Y-23923371D01*
X19610278Y-23959109D01*
X19693943Y-24115634D01*
X19745463Y-24285473D01*
X19762859Y-24462100D01*
X19745463Y-24638727D01*
X19693943Y-24808566D01*
X19610278Y-24965091D01*
X19591367Y-24988134D01*
X19497686Y-25102286D01*
X19396229Y-25185548D01*
X19360491Y-25214878D01*
X19203966Y-25298543D01*
X19034127Y-25350063D01*
X18967942Y-25356582D01*
X18901760Y-25363100D01*
X18563240Y-25363100D01*
X18497058Y-25356582D01*
X18430873Y-25350063D01*
X18261034Y-25298543D01*
X18104509Y-25214878D01*
X18068771Y-25185548D01*
X17967314Y-25102286D01*
X17873633Y-24988134D01*
X17854722Y-24965091D01*
X17771057Y-24808566D01*
X17719537Y-24638727D01*
X17702141Y-24462100D01*
X17719537Y-24285473D01*
X17771057Y-24115634D01*
X17854722Y-23959109D01*
X17884052Y-23923371D01*
X17967314Y-23821914D01*
X18097069Y-23715428D01*
X18104509Y-23709322D01*
X18261034Y-23625657D01*
X18430873Y-23574137D01*
X18497058Y-23567618D01*
X18563240Y-23561100D01*
X18901760Y-23561100D01*
X18967942Y-23567618D01*
G37*
G36*
X106992100Y-21937589D02*
G01*
X107025152Y-21947615D01*
X107055603Y-21963892D01*
X107082299Y-21985801D01*
X107104208Y-22012497D01*
X107120485Y-22042948D01*
X107130511Y-22076000D01*
X107134500Y-22116503D01*
X107134500Y-23552697D01*
X107130511Y-23593200D01*
X107120485Y-23626252D01*
X107104208Y-23656703D01*
X107082299Y-23683399D01*
X107055603Y-23705308D01*
X107025152Y-23721585D01*
X106992100Y-23731611D01*
X106951597Y-23735600D01*
X105265403Y-23735600D01*
X105224900Y-23731611D01*
X105191848Y-23721585D01*
X105161397Y-23705308D01*
X105134701Y-23683399D01*
X105112792Y-23656703D01*
X105096515Y-23626252D01*
X105086489Y-23593200D01*
X105082500Y-23552697D01*
X105082500Y-22116503D01*
X105086489Y-22076000D01*
X105096515Y-22042948D01*
X105112792Y-22012497D01*
X105134701Y-21985801D01*
X105161397Y-21963892D01*
X105191848Y-21947615D01*
X105224900Y-21937589D01*
X105265403Y-21933600D01*
X106951597Y-21933600D01*
X106992100Y-21937589D01*
G37*
G36*
X18967942Y-21067618D02*
G01*
X19034127Y-21074137D01*
X19203966Y-21125657D01*
X19360491Y-21209322D01*
X19396229Y-21238652D01*
X19497686Y-21321914D01*
X19580948Y-21423371D01*
X19610278Y-21459109D01*
X19693943Y-21615634D01*
X19745463Y-21785473D01*
X19762859Y-21962100D01*
X19745463Y-22138727D01*
X19693943Y-22308566D01*
X19610278Y-22465091D01*
X19580948Y-22500829D01*
X19497686Y-22602286D01*
X19396229Y-22685548D01*
X19360491Y-22714878D01*
X19203966Y-22798543D01*
X19034127Y-22850063D01*
X18967943Y-22856581D01*
X18901760Y-22863100D01*
X18563240Y-22863100D01*
X18497057Y-22856581D01*
X18430873Y-22850063D01*
X18261034Y-22798543D01*
X18104509Y-22714878D01*
X18068771Y-22685548D01*
X17967314Y-22602286D01*
X17884052Y-22500829D01*
X17854722Y-22465091D01*
X17771057Y-22308566D01*
X17719537Y-22138727D01*
X17702141Y-21962100D01*
X17719537Y-21785473D01*
X17771057Y-21615634D01*
X17854722Y-21459109D01*
X17884052Y-21423371D01*
X17967314Y-21321914D01*
X18068771Y-21238652D01*
X18104509Y-21209322D01*
X18261034Y-21125657D01*
X18430873Y-21074137D01*
X18497058Y-21067618D01*
X18563240Y-21061100D01*
X18901760Y-21061100D01*
X18967942Y-21067618D01*
G37*
M02*
